<svg xmlns="http://www.w3.org/2000/svg" width="67.141" height="40" viewBox="0 0 67.141 40"><path d="M36.965,40H35.574c-.16-.216-.535-.216-.963-.216v-.163l.053-.054c.16-.054.268-.054.321-.108a.053.053,0,0,0,.053-.054c0-.054.053-.054.053-.163s.107-.487.214-1.245l.268-1.407c.053-.487.107-.758.107-.866,0-.054,0-.108-.053-.108s-.053-.054-.107-.054a1.986,1.986,0,0,1-.428-.054v-.163H38.41l.053.055c0,.054-.053.216-.107.541a1.515,1.515,0,0,0-.053.487h-.214v-.541a.185.185,0,0,0-.107-.055,1.869,1.869,0,0,0-.321-.054h-.481a1.985,1.985,0,0,0-.588.054l-.214.974c-.053.163-.053.379-.107.65h1.444v.054l-.107.27-.053.055a8.493,8.493,0,0,1-1.177-.055h-.268L35.9,38.918a5.771,5.771,0,0,0-.107.7h1.231a1.883,1.883,0,0,0,.375-.054c.053,0,.107-.054.16-.108s.053-.162.107-.325a.911.911,0,0,1,.107-.27h.16l-.214,1.082L37.66,40Zm18.081-.054a1.224,1.224,0,0,1-.481-.162v-.055a3.057,3.057,0,0,0,.054-.379,1.359,1.359,0,0,1,.053-.487h.16l.053.054v.27a1.413,1.413,0,0,0,.321.271,1.264,1.264,0,0,0,.481.108.671.671,0,0,0,.321-.054.735.735,0,0,0,.214-.162.411.411,0,0,0,.053-.271.328.328,0,0,0-.053-.216l-.16-.163c-.054-.054-.161-.054-.321-.108-.214-.054-.375-.108-.428-.108a.4.4,0,0,1-.214-.108.741.741,0,0,1-.161-.217,1.013,1.013,0,0,1,0-.649,1.172,1.172,0,0,1,.161-.271,3.643,3.643,0,0,1,.374-.27,3.177,3.177,0,0,1,.428-.217.673.673,0,0,1,.321-.054,1.5,1.5,0,0,1,.8.217c-.054.216-.054.433-.107.758h-.267L56.6,37.4a1.118,1.118,0,0,0-.321-.217.9.9,0,0,0-.375-.054.769.769,0,0,0-.375.108.388.388,0,0,0-.16.325.329.329,0,0,0,.16.325,2.062,2.062,0,0,0,.589.162,2.421,2.421,0,0,1,.428.108.419.419,0,0,1,.214.217.725.725,0,0,1,0,.758,1.2,1.2,0,0,1-.375.379,3.634,3.634,0,0,1-.481.325,1.328,1.328,0,0,1-.535.108ZM49,39.838a.462.462,0,0,1-.107-.325.6.6,0,0,1,.053-.271c.053-.108.053-.379.16-.812a11.652,11.652,0,0,1,.16-1.3h-.642v-.162l.053-.054c.161-.054.428-.109.7-.217a.962.962,0,0,1,.053-.324,2.46,2.46,0,0,0,.053-.6,2.817,2.817,0,0,1,.588-.162.4.4,0,0,1,.214-.054l.053.054c-.053.216-.161.6-.268,1.137h.856l.053.054a.7.7,0,0,0-.053.325l-.053.054h-.8c-.053.163-.053.379-.107.6l-.107.6-.107.487a2.367,2.367,0,0,1-.053.27v.108c0,.055,0,.109.053.109s.054.054.107.054h.107c.053,0,.107-.054.16-.108a3.577,3.577,0,0,1,.375-.271h.053l.053.108v.054a4.6,4.6,0,0,1-.963.65,1.345,1.345,0,0,1-.375.108A.406.406,0,0,1,49,39.838Zm2.514-.109a.728.728,0,0,1-.321-.379,1.309,1.309,0,0,1-.107-.487,5.107,5.107,0,0,1,.107-.758,1.629,1.629,0,0,1,.321-.758,1.46,1.46,0,0,1,.642-.487,2.218,2.218,0,0,1,.856-.217,1.151,1.151,0,0,1,.749.271.885.885,0,0,1,.267.758,3.1,3.1,0,0,1-.16.974,1.377,1.377,0,0,1-.481.7,3.592,3.592,0,0,1-.588.379,1.464,1.464,0,0,1-.7.163A.95.95,0,0,1,51.516,39.729Zm.8-2.652a2.05,2.05,0,0,0-.321.758,4.041,4.041,0,0,0-.16,1.028A.725.725,0,0,0,52,39.4a.524.524,0,0,0,.428.162.757.757,0,0,0,.321-.108c.107-.054.16-.217.267-.379a1.841,1.841,0,0,0,.214-.649,3.621,3.621,0,0,0,.053-.758.876.876,0,0,0-.161-.6.483.483,0,0,0-.374-.162A.6.6,0,0,0,52.318,37.077Zm-5.51,2.707c0-.055-.053-.163-.053-.217a3.8,3.8,0,0,1,.214-1.028,7.24,7.24,0,0,0,.267-1.082c0-.108-.053-.108-.107-.108a.2.2,0,0,0-.16.054,1.21,1.21,0,0,0-.268.27c-.107.163-.267.271-.375.433a1.7,1.7,0,0,0-.267.541c-.053.217-.161.379-.214.65a3.139,3.139,0,0,0-.107.541,1.484,1.484,0,0,0-.749.054l-.107-.054c.053-.163.161-.433.268-.812A8.89,8.89,0,0,0,45.364,38a3.185,3.185,0,0,0,.053-.541c0-.054,0-.108-.053-.108a1.5,1.5,0,0,0-.428.27h-.053l-.053-.108v-.054a2.338,2.338,0,0,1,.375-.325c.16-.108.268-.216.375-.27a1.183,1.183,0,0,0,.267-.163.2.2,0,0,1,.161-.054c.107,0,.16.054.16.217a1.359,1.359,0,0,1-.053.433c-.053.163-.107.487-.214.974a3.713,3.713,0,0,1,.909-1.137,1.553,1.553,0,0,1,.856-.487c.16,0,.268.108.268.325a1.889,1.889,0,0,1-.053.487c-.054.216-.107.487-.214.92a2.9,2.9,0,0,1-.16.6.594.594,0,0,0-.053.27c0,.055,0,.109.053.109.107,0,.214-.109.481-.271h.053l.053.108v.054c-.375.271-.588.433-.749.542a.571.571,0,0,1-.374.108C46.862,39.892,46.808,39.838,46.808,39.784Zm-4.387,0a.652.652,0,0,1-.267-.271,1.015,1.015,0,0,1-.107-.379,6.347,6.347,0,0,1,.107-.866,2.314,2.314,0,0,1,.321-.812,3.71,3.71,0,0,1,.642-.541,1.158,1.158,0,0,1,.749-.271.6.6,0,0,1,.428.162.5.5,0,0,1,.16.379.819.819,0,0,1-.214.6,1.492,1.492,0,0,1-.642.433,5.765,5.765,0,0,1-.909.271c0,.162-.053.27-.053.433a.537.537,0,0,0,.16.433.39.39,0,0,0,.321.108.786.786,0,0,0,.321-.054c.161-.054.214-.054.268-.108s.321-.109.588-.271l.053.108v.054a4.333,4.333,0,0,1-.909.541,1.6,1.6,0,0,1-.588.163A1,1,0,0,1,42.422,39.784Zm.749-2.544a4.433,4.433,0,0,0-.321,1.083,1.564,1.564,0,0,0,.856-.433,1.146,1.146,0,0,0,.214-.6.282.282,0,0,0-.107-.216.277.277,0,0,0-.214-.108A.544.544,0,0,0,43.171,37.239Zm-3.8,2.436a1.214,1.214,0,0,1-.214-.7,1.5,1.5,0,0,1,.054-.487,2.541,2.541,0,0,1,.267-.541,4.512,4.512,0,0,1,.749-.812c-.107,0-.161.054-.214.054h-.856l-.214.433h-.053l-.321-.054.268-.812a1.191,1.191,0,0,1,.375-.054h.267c.268,0,.428.054.588.054a.821.821,0,0,0,.428-.108l.107.108c-.107.109-.214.325-.374.541a1.906,1.906,0,0,0-.321.758,4.3,4.3,0,0,0-.107.758,1.094,1.094,0,0,0,.107.487.322.322,0,0,0,.321.162.847.847,0,0,0,.535-.271,2.008,2.008,0,0,0,.428-.758,2.723,2.723,0,0,0,.16-.866c0-.271-.107-.379-.268-.379a.2.2,0,0,0-.16.054H40.87l-.053-.108v-.054c.053-.054.16-.108.214-.216s.161-.163.161-.217h.16q.482,0,.481.649a2.656,2.656,0,0,1-.321,1.191,3.9,3.9,0,0,1-.749,1.028,1.218,1.218,0,0,1-.856.379A.616.616,0,0,1,39.373,39.675Zm-7.6-4.547.8-27.713-6.74,1.407.535-1.3,6.312-1.407L32.739.758,34.023,0V5.846l7.6-1.461-.481,1.353L34.076,7.253l.375,27.226-1.337,3.464.16-22.463-.535,18.457.375,4.005Zm28.887-1.678a3.321,3.321,0,0,1-1.177-.92,3.1,3.1,0,0,1-.7-1.137,5.046,5.046,0,0,1-.428-2.165,4.679,4.679,0,0,1,1.284-3.41,4.326,4.326,0,0,1,3.263-1.3,4.041,4.041,0,0,1,3.049,1.191,4.181,4.181,0,0,1,1.177,3.139,4.959,4.959,0,0,1-2.3,4.33,4.593,4.593,0,0,1-2.407.649A3.841,3.841,0,0,1,60.663,33.451Zm.16-7.578a4.066,4.066,0,0,0-.7,2.6A8.455,8.455,0,0,0,60.5,30.8a3.083,3.083,0,0,0,1.07,1.732,2.54,2.54,0,0,0,1.5.541,2.128,2.128,0,0,0,1.712-.92,4.065,4.065,0,0,0,.7-2.6,6.875,6.875,0,0,0-.428-2.544,3.4,3.4,0,0,0-1.07-1.516,2.494,2.494,0,0,0-1.391-.433q-.07-.006-.14-.006A2.144,2.144,0,0,0,60.824,25.873ZM4.708,33.342a6.27,6.27,0,0,1-2.087-1.028,5.507,5.507,0,0,1-1.5-1.461,6.867,6.867,0,0,1-.856-1.786A9.493,9.493,0,0,1,0,26.955a6.751,6.751,0,0,1,1.979-4.817,7.706,7.706,0,0,1,5.456-1.894,9.265,9.265,0,0,1,2.943.649c.749.325.8-.541.749-.866h.481l.321,3.789H11.5a3.8,3.8,0,0,0-.428-1.082,3.067,3.067,0,0,0-1.284-1.191A5.152,5.152,0,0,0,7.275,21a7.323,7.323,0,0,0-2.14.325,4.209,4.209,0,0,0-1.552.974,5.357,5.357,0,0,0-1.123,1.732,7.16,7.16,0,0,0-.428,2.6,6.394,6.394,0,0,0,1.605,4.438,5.966,5.966,0,0,0,4.387,1.678,8.155,8.155,0,0,0,2.3-.324,4.613,4.613,0,0,0,1.444-.758l.161.162-.375.866a9.224,9.224,0,0,1-2.033.758,14.219,14.219,0,0,1-2.247.27A10.51,10.51,0,0,1,4.708,33.342Zm36.537-.27a2.374,2.374,0,0,1-.589-1.57,2.861,2.861,0,0,1,.214-1.137,2.5,2.5,0,0,1,.481-.812,2.366,2.366,0,0,1,.588-.433,8.477,8.477,0,0,1,1.659-.541,17.121,17.121,0,0,1,2.3-.433,5.338,5.338,0,0,0-.107-1.3A1.883,1.883,0,0,0,45.15,25.6a1.525,1.525,0,0,0-1.07-.271A1.206,1.206,0,0,0,42.8,26.468c0,.054.053.325.053.487a.877.877,0,0,1-.321.7.993.993,0,0,1-1.391,0,.878.878,0,0,1-.321-.7,1.747,1.747,0,0,1,.16-.758,3.607,3.607,0,0,1,1.5-1.353,6,6,0,0,1,1.926-.325,3.48,3.48,0,0,1,1.765.487,2.643,2.643,0,0,1,.963,1.191,4.084,4.084,0,0,1,.214,1.407l-.053,1.678v2.707a2.667,2.667,0,0,0,.053.649c0,.108.107.162.161.216.053,0,.428.109.909-.433v.433a1.989,1.989,0,0,1-1.231.542c-1.284.162-1.391-1.083-1.391-1.57a3.748,3.748,0,0,1-1.872,1.624c-.375.108-.749.162-1.016.216q-.089.008-.178.008A2.221,2.221,0,0,1,41.245,33.072Zm2.568-4.059a3.194,3.194,0,0,0-1.177.487,1.481,1.481,0,0,0-.375.487,2.363,2.363,0,0,0-.214,1.028,1.713,1.713,0,0,0,.375,1.137,1.4,1.4,0,0,0,1.016.379,3.017,3.017,0,0,0,1.177-.379,3.781,3.781,0,0,0,1.177-1.082v-2.49A11.662,11.662,0,0,0,43.812,29.012ZM27.55,33.667a8.665,8.665,0,0,1-2.033-.216,3.912,3.912,0,0,1-.749-.217c-.053-.054-.053-.054-.053-.108v-.162a3.234,3.234,0,0,0,.107-.758,10.277,10.277,0,0,0,.053-1.57h.535a4.432,4.432,0,0,0,.053.866c.053.216.107.379.16.6a1.281,1.281,0,0,0,.321.487,2.536,2.536,0,0,0,.481.325,1.024,1.024,0,0,0,.535.162,4.008,4.008,0,0,0,.8.054,2.175,2.175,0,0,0,1.5-.487,1.769,1.769,0,0,0,.588-1.353,1.062,1.062,0,0,0-.16-.7,1.46,1.46,0,0,0-.535-.433c-.481-.162-1.017-.325-1.5-.433-.749-.162-1.23-.325-1.444-.379a2.005,2.005,0,0,1-.8-.487,2.055,2.055,0,0,1-.481-.7,2.558,2.558,0,0,1-.161-.92,2.348,2.348,0,0,1,.375-1.353,2.817,2.817,0,0,1,1.231-1.028,3.763,3.763,0,0,1,1.712-.379,5.2,5.2,0,0,1,1.284.163,10.3,10.3,0,0,1,1.177.433c-.053.7-.107,1.407-.107,2.111H29.9a4.8,4.8,0,0,0-.107-.866c-.053-.108-.107-.271-.16-.379a.731.731,0,0,0-.321-.379l-.642-.324a2.477,2.477,0,0,0-.909-.163,1.812,1.812,0,0,0-1.284.487A1.567,1.567,0,0,0,26,26.685a1.1,1.1,0,0,0,.16.6,1.463,1.463,0,0,0,.375.433,3.264,3.264,0,0,0,.642.27l1.5.379a7.415,7.415,0,0,1,1.551.487,1.635,1.635,0,0,1,.7.65,2.481,2.481,0,0,1,.268,1.082,2.818,2.818,0,0,1-.963,2.165,3.77,3.77,0,0,1-2.468.926Q27.654,33.673,27.55,33.667Zm29.9-.216c-.321,0-.909,0-1.658.054.053-1.57.107-2.544.107-2.923v-1.57a11.912,11.912,0,0,0-.107-1.949,1.563,1.563,0,0,0-.7-1.029,2.114,2.114,0,0,0-1.284-.379,2.465,2.465,0,0,0-1.231.324,2.157,2.157,0,0,0-.8.758,3.47,3.47,0,0,0-.214,1.461v1.191c.053,1.624.053,2.49.053,2.6a2.773,2.773,0,0,0,.107.7c0,.054.054.108.107.162a.276.276,0,0,0,.214.109h.963V33.5c-.749-.054-1.391-.054-1.979-.054-.535,0-1.337,0-2.461.054v-.541h.856a.575.575,0,0,0,.267-.054l.161-.163a2.747,2.747,0,0,0,.107-.649c0-.108,0-.974.053-2.707V26.685a2.751,2.751,0,0,0-.107-.65c-.053-.054-.107-.162-.214-.162a8.968,8.968,0,0,0-1.177-.054v-.541a8.965,8.965,0,0,0,2.621-.7.277.277,0,0,1,.214-.108c.053,0,.053.054,0,.108a.2.2,0,0,1,.053.163V24.9c0,.217-.053.7-.053,1.407l1.658-1.461a3.982,3.982,0,0,1,1.391-.271A3.094,3.094,0,0,1,55.8,24.9a2.617,2.617,0,0,1,.963.758,2.168,2.168,0,0,1,.481,1.137c.053.758.053,1.57.053,2.328V30.8c0,.6,0,1.137.053,1.678.053.108.107.27.16.379a.406.406,0,0,0,.268.109H58.9V33.5C58.31,33.451,57.828,33.451,57.454,33.451Zm-43.278,0c-.8,0-1.551,0-2.246.054v-.541c.7-.054,1.07-.054,1.123-.054.053-.055.16-.055.214-.109s.053-.108.107-.162a3.2,3.2,0,0,0,.107-.7c.053-1.624.053-2.544.053-2.6V26.522a1.349,1.349,0,0,0-.053-.649c-.053-.108-.107-.162-.214-.162a8.58,8.58,0,0,0-1.177-.054v-.541a9.323,9.323,0,0,0,2.675-.7.277.277,0,0,1,.214-.108c.053,0,.107,0,.107.054a.2.2,0,0,1,.053.162v.163a15.519,15.519,0,0,0-.053,1.786,11.8,11.8,0,0,0,.749-.974,2.533,2.533,0,0,1,.481-.649,3.983,3.983,0,0,1,.642-.379,1.6,1.6,0,0,1,1.284-.054.96.96,0,0,1,.375.271,1.164,1.164,0,0,1,0,1.516,1.563,1.563,0,0,1-.856.379.981.981,0,0,1-.642-.271c-.214-.162-.214-.271-.481-.271a1.416,1.416,0,0,0-1.177.6,2.666,2.666,0,0,0-.481,1.786v1.028c0,.433,0,1.191.053,2.274a3.62,3.62,0,0,0,.053.758.409.409,0,0,0,.107.216.4.4,0,0,0,.214.108,6.543,6.543,0,0,0,1.444.163V33.5C15.835,33.451,14.925,33.451,14.176,33.451Zm23.645-.109c-.428,0-1.231,0-2.3.055v-.542h.856a.575.575,0,0,0,.267-.054l.16-.162a2.724,2.724,0,0,0,.107-.649c0-.054.053-.974.053-2.815V27.551a8.575,8.575,0,0,0-.107-1.678.422.422,0,0,0-.214-.216,8.575,8.575,0,0,0-1.177-.054v-.542a7.625,7.625,0,0,0,2.889-.758l.214.162c-.053,1.3-.053,2.328-.053,3.031v1.732c0,1.624.053,2.544.053,2.652a2.777,2.777,0,0,0,.107.7c0,.054.053.108.107.162a.4.4,0,0,0,.214.108h.963V33.4C39.1,33.342,38.356,33.342,37.821,33.342Zm-16-.054c-.481,0-1.23,0-2.3.054V32.8h.856a.577.577,0,0,0,.268-.054l.16-.162a2.751,2.751,0,0,0,.107-.649c0-.109.054-.974.054-2.707V27.605a8.538,8.538,0,0,0-.107-1.678.42.42,0,0,0-.214-.216,8.58,8.58,0,0,0-1.177-.054v-.541a8.852,8.852,0,0,0,2.889-.812l.214.162c-.053,1.353-.053,2.382-.053,3.086v1.732c.053,1.624.053,2.544.053,2.653a2.773,2.773,0,0,0,.107.7c0,.054.053.108.107.162A.406.406,0,0,0,23,32.91h.963v.433C23.056,33.288,22.361,33.288,21.826,33.288Zm15.139-10.23a1.162,1.162,0,0,1,0-1.516.908.908,0,0,1,1.391,0,1.056,1.056,0,0,1,0,1.516.964.964,0,0,1-.691.3A.989.989,0,0,1,36.965,23.058Zm-16.1-.216a1.164,1.164,0,0,1,0-1.516l.053-.054a.993.993,0,0,1,1.391.054,1.162,1.162,0,0,1,0,1.516.859.859,0,0,1-.7.325A1.151,1.151,0,0,1,20.863,22.842Zm17.493.216v0Zm-33.6-3.734a6.181,6.181,0,0,1-3.531-2.436,5.635,5.635,0,0,1-.8-1.732,7.213,7.213,0,0,1-.321-2.111A6.261,6.261,0,0,1,2.086,8.227,7.7,7.7,0,0,1,7.543,6.333a8.906,8.906,0,0,1,2.942.6c.749.325.8-.541.749-.866h.321l.321,3.789h-.428a3.808,3.808,0,0,0-.428-1.082A3.063,3.063,0,0,0,9.736,7.578a5.153,5.153,0,0,0-2.514-.542,7.075,7.075,0,0,0-2.14.325,4.215,4.215,0,0,0-1.552.974,5.354,5.354,0,0,0-1.123,1.732,7.155,7.155,0,0,0-.428,2.6A5.9,5.9,0,0,0,3.638,17.1a6.049,6.049,0,0,0,4.387,1.678,8.155,8.155,0,0,0,2.3-.325,6.1,6.1,0,0,0,1.444-.758l.161.163-.375.866a9.2,9.2,0,0,1-2.033.758,9.745,9.745,0,0,1-2.194.216A10.532,10.532,0,0,1,4.761,19.324Zm40.121-.6a3.034,3.034,0,0,1-1.177-.866,3.1,3.1,0,0,1-.7-1.137,5.723,5.723,0,0,1-.428-2.111,4.432,4.432,0,0,1,1.284-3.3,4.323,4.323,0,0,1,3.263-1.3H47.5a4.062,4.062,0,0,1,3.905,4.276,4.338,4.338,0,0,1-.588,2.436,3.811,3.811,0,0,1-1.712,1.732,4.924,4.924,0,0,1-2.461.649A3.989,3.989,0,0,1,44.882,18.728Zm.107-7.307a3.914,3.914,0,0,0-.7,2.544,8.407,8.407,0,0,0,.375,2.273,3.135,3.135,0,0,0,1.07,1.678,2.54,2.54,0,0,0,1.5.541A2.248,2.248,0,0,0,49,17.591a4.064,4.064,0,0,0,.7-2.6,6.592,6.592,0,0,0-.428-2.49,3.24,3.24,0,0,0-1.07-1.461,2.666,2.666,0,0,0-1.444-.433A2.275,2.275,0,0,0,44.989,11.421ZM14.6,18.512A3.444,3.444,0,0,1,13.16,17.05a4.961,4.961,0,0,1-.535-2.328,5.6,5.6,0,0,1,.268-1.895,3.439,3.439,0,0,1,.642-1.245,5.279,5.279,0,0,1,.8-.65,6.852,6.852,0,0,1,1.07-.6,3.8,3.8,0,0,1,1.551-.324,3.524,3.524,0,0,1,1.819.487,2.924,2.924,0,0,1,1.177,1.245,4.118,4.118,0,0,1,.375,1.786v.649a8.653,8.653,0,0,1-1.177.108c-.642.054-1.284.054-1.926.054H14.337a4.053,4.053,0,0,0,.428,2.111,2.788,2.788,0,0,0,1.177,1.191,3.134,3.134,0,0,0,1.551.379,3.418,3.418,0,0,0,1.07-.162,6.129,6.129,0,0,0,1.337-.65l.161.163-.268.649a8.04,8.04,0,0,1-.909.541,3.372,3.372,0,0,1-.963.325A9.5,9.5,0,0,1,16.744,19,4.779,4.779,0,0,1,14.6,18.512Zm.375-7.145a3.52,3.52,0,0,0-.642,2.274c.16,0,.481.054.963.054.856.054,1.5.054,1.819.054a11.206,11.206,0,0,0,1.6-.054v-.325a3.25,3.25,0,0,0-.588-2.111,2.046,2.046,0,0,0-1.552-.649A2,2,0,0,0,14.979,11.367Zm22.307,7.524c-.8,0-1.551,0-2.246.054V18.4c.7-.054,1.07-.054,1.123-.054.053-.054.16-.054.214-.109s.053-.108.107-.162a2.747,2.747,0,0,0,.107-.649c.053-1.624.053-2.49.053-2.544V12.233a1.348,1.348,0,0,0-.053-.649c-.053-.108-.107-.163-.214-.163a8.58,8.58,0,0,0-1.177-.054v-.541a9.209,9.209,0,0,0,2.675-.649c.107-.054.16-.108.267-.108.053,0,.107,0,.107.054.054,0,.054.054.054.108v.162a14.849,14.849,0,0,0-.054,1.732A6.193,6.193,0,0,0,39,11.2a5.743,5.743,0,0,1,.481-.6,3.947,3.947,0,0,1,.642-.379,1.872,1.872,0,0,1,.749-.162,1.692,1.692,0,0,1,.749.162c.107.054.268.162.268.325a1.036,1.036,0,0,1,.268.7v.108a.974.974,0,0,1-1.07.92.927.927,0,0,1-.642-.216l-.053-.054a.61.61,0,0,0-.642-.271,1.417,1.417,0,0,0-1.177.6,2.524,2.524,0,0,0-.481,1.732v.974c0,.379.053,1.137.053,2.165a3.127,3.127,0,0,0,.053.7.409.409,0,0,0,.107.216.4.4,0,0,0,.214.108,6.544,6.544,0,0,0,1.444.163v.541C38.944,18.891,38.035,18.891,37.286,18.891ZM20.756,18.4h.856a.674.674,0,0,0,.321-.054l.16-.163a2.747,2.747,0,0,0,.107-.649c0-.054,0-.92.053-2.6V12.287a2.747,2.747,0,0,0-.107-.649c-.053-.108-.107-.162-.214-.162a8.5,8.5,0,0,0-1.177-.055v-.541a9.209,9.209,0,0,0,2.675-.649.277.277,0,0,1,.214-.108c.053,0,.107,0,.107.054.053,0,.053.054.053.108v.162c0,.217-.053.65-.053,1.353l1.659-1.407a3.981,3.981,0,0,1,1.391-.27,2.48,2.48,0,0,1,1.391.27,1.928,1.928,0,0,1,.963.65,2.643,2.643,0,0,1,.428,1.137c.054.758.054,1.516.054,2.274v1.624c0,.541,0,1.082.053,1.624a2.637,2.637,0,0,0,.16.379.753.753,0,0,0,.321.108h.963v.541c-.589-.054-1.124-.054-1.444-.054s-.856,0-1.659.054c.053-1.461.107-2.436.107-2.814V14.4a10.949,10.949,0,0,0-.107-1.895,1.7,1.7,0,0,0-.7-.92,2.114,2.114,0,0,0-1.284-.379,2.458,2.458,0,0,0-1.23.325,2.153,2.153,0,0,0-.8.758,3.119,3.119,0,0,0-.214,1.407v1.082c.054,1.57.054,2.436.054,2.544a2.751,2.751,0,0,0,.107.649c0,.054.053.108.107.162a.277.277,0,0,0,.214.108h.963v.542a8.236,8.236,0,0,0-2.033.108c-.481,0-1.337,0-2.461.054Z" fill="#fff"/></svg>