<svg xmlns="http://www.w3.org/2000/svg" viewBox="0 0 535.15 118.53"><defs><style>.cls-1{fill:#fff;}</style></defs><g id="Capa_2" data-name="Capa 2"><g id="Capa_1-2" data-name="Capa 1"><path class="cls-1" d="M108.8,108.67h-8c-3,0-6.62.42-9.64.42a85.52,85.52,0,0,0,13.26-9.59c13-12.65,6.57-29.34-9.63-29.34-6,0-11.9,2.41-15,8.42-2.74,6.15,4.44,9,7.18,4.72a9.62,9.62,0,0,1,7.81-4.58c9.24,0,9.31,9.84,3,14.77-6.62,6-12.44,10.27-18.59,16.84-2.95,3.07-1.24,7.18,3,7.18H108.8c5.94,0,5.26-8.84,0-8.84"/><path class="cls-1" d="M130.62,70.79,121,74.34c-6.22,2.06-2.95,10.13,2.55,8.35l4.09-1.64v32.84c0,5.19,9,5,9,0V75.58c0-4.86-2.88-6.17-6-4.79"/><path class="cls-1" d="M90,60.25c0,5.92-9,6.12-9,.13V21.73A4.07,4.07,0,0,1,85,17.58h18.1c17.29,0,20.83,23.14,6.4,28.92l9,11c3.54,5.24-3.54,10.27-7.62,5.1l-10.27-14.7H90ZM90,40.1h13.13c8.85,0,9.4-14.29,0-14.29H90Z"/><path class="cls-1" d="M131.05,64.67a4.15,4.15,0,0,1-4.21-4.22V21.8a4.11,4.11,0,0,1,4.21-4.22h24.44a4.43,4.43,0,1,1,0,8.84h-19.6V36.63H153c6.05,0,6.05,8.92,0,8.92H135.89V55.76h20.75c6.2,0,6.67,8.91,0,8.91Z"/><path class="cls-1" d="M168.82,22.34c0-2.45.55-4.83,4.09-4.83,2.45,0,3,.61,4.83,2.38l22.52,28.18V21.66c0-2.24,2-4.69,4.29-4.69a5.18,5.18,0,0,1,4.83,4.69V60a4.53,4.53,0,0,1-3.6,4.69c-2.39,0-3.54-.54-5.52-2.38L177.74,33.71V60c0,3-1.84,4.69-4.29,4.69A4.48,4.48,0,0,1,168.82,60Z"/><path class="cls-1" d="M242.8,65.35c-12.59.55-25.66-7.82-25.66-24.5s13.07-25,25.66-25c11.91.61,24.36,8.84,24.36,25s-12.45,24.5-24.36,24.5m-.75-40.63c-7.62,0-15.93,5.38-15.93,16.13S234.43,57,242.05,57c7.82,0,16.2-5.44,16.2-16.13s-8.38-16.13-16.2-16.13"/><path class="cls-1" d="M290.84,61.61,272.88,24c-2.66-5.38,5.37-9.8,8.37-4.16L287.3,33.5l7.83,18,7.69-18,6.06-13.68c2.72-5.17,10.61-1.9,8.3,3.75l-17.35,38c-1.57,4.29-6.4,5.31-9,0"/><path class="cls-1" d="M319.29,64.67a4.8,4.8,0,0,1-2.18-6.53L336.64,20c1.84-3.61,6.74-3.74,8.44,0l19.19,38.18c2.79,5.31-5.44,9.53-7.89,4.22l-3-6H328.27l-2.92,6c-1.09,2.31-3.61,2.79-6.06,2.31m29.26-17.28-7.69-16.81-8.37,16.81Z"/><path class="cls-1" d="M368.76,40.78c0-13.13,8.24-24.43,23.89-24.43,5.92,0,10.62,1.77,15.58,6.06a4.64,4.64,0,0,1,.21,6.6,4.62,4.62,0,0,1-6.26-.2c-2.79-2.93-5.65-3.75-9.53-3.75-10.48,0-15.52,7.42-15.52,15.72s5,16.2,15.52,16.2a15.85,15.85,0,0,0,10.62-4.35,4.58,4.58,0,0,1,6.26.81,4.7,4.7,0,0,1-.75,6.4c-4.76,4.42-10.48,5.31-16.13,5.31-16.47,0-23.89-11.23-23.89-24.37"/><path class="cls-1" d="M418.85,21.66c0-5.58,9-5.78,9,0V60.52c0,5.65-9,5.79-9,0Z"/><path class="cls-1" d="M461.86,65.35c-12.59.55-25.66-7.82-25.66-24.5s13.07-25,25.66-25c11.91.61,24.36,8.84,24.36,25s-12.45,24.5-24.36,24.5m-.75-40.63c-7.62,0-15.92,5.38-15.92,16.13S453.49,57,461.11,57c7.83,0,16.2-5.44,16.2-16.13s-8.37-16.13-16.2-16.13M462.34.91c4.42-3.27,9.18,3.13,5,6.19l-7.28,4.83c-4.29,2.65-8.71-3.27-4.29-6.19Z"/><path class="cls-1" d="M494.59,22.34c0-2.45.55-4.83,4.09-4.83,2.45,0,3,.61,4.83,2.38L526,48.07V21.66c0-2.24,2-4.69,4.29-4.69a5.18,5.18,0,0,1,4.83,4.69V60a4.53,4.53,0,0,1-3.6,4.69c-2.39,0-3.54-.54-5.52-2.38L503.51,33.71V60c0,3-1.84,4.69-4.29,4.69A4.48,4.48,0,0,1,494.59,60Z"/><path class="cls-1" d="M67,23.3c0,1.51,0,3,0,4.55,0,19.9,0,62.65,0,62.65,0-.19-13.46-27.8-13.46-27.8-.16-.28-10-2.91-10.06-3C45.16,58.62,55,53.3,58.05,51.29c.16-.11.25-.19.25-.3a.53.53,0,0,0-.11-.32C53,42.41,48.2,32.33,43,24.06a.94.94,0,0,0-.65-.43c-9.52-2.49-28.78-8.23-28.65-8.23q21.6,0,43.2,0h.37A10.19,10.19,0,0,1,67,23.3"/><path class="cls-1" d="M24.77,71.38a1.7,1.7,0,0,1,0,.22c-.08-.15-.08-.42,0-.22"/><path class="cls-1" d="M61.06,118.52H45L32.15,75.21l-5.55,3L24.82,70.7c0,.08,9.23-5.55,9.23-5.55l7.29,2.46Z"/><path class="cls-1" d="M24.94,118.53H.26S.21,103,.21,100.79c0-.39.2-.54.46-.71,4.07-2.56,8.12-5.14,12.19-7.68a.7.7,0,0,0,.37-.88c-.33-1.46-.65-2.94-.93-4.41-.08-.43-.15-.51-.56-.27C8.11,89,4.47,91.15.84,93.3c-.18.11-.37.21-.62.34,0,.65-.33-8.34-.19-8.43S17.4,75.09,17.47,75.08l3.8,23.11-8,5.07.91,8,8.4-4.78Z"/><path class="cls-1" d="M13.91,55.31l-13.69,8V24.82c0-.67,0-.68.62-.49,2.43.72,4.85,1.46,7.29,2.16a.62.62,0,0,1,.51.57c.5,2.67,2.88,15,5.27,28.25"/><path class="cls-1" d="M16.27,68.44.33,77.4c0-2.47,0-4.2-.07-6.47l14.81-8.71c.41,2.3.81,4.09,1.2,6.22"/><path class="cls-1" d="M24.69,48.9,19,29.69c-1-.42,10,3,13.76,4.11a1.09,1.09,0,0,1,.76.67c1.11,2.51,2.24,5,3.37,7.53Z"/></g></g></svg>