<svg xmlns="http://www.w3.org/2000/svg" viewBox="0 0 77.96 120"><defs><style>.cls-1{fill:#fff;}</style></defs><g id="Capa_2" data-name="Capa 2"><g id="Capa_1-2" data-name="Capa 1"><path class="cls-1" d="M78,9.19c0,1.77,0,3.54,0,5.3,0,23.15,0,72.89,0,72.89C78,87.16,62.29,55,62.29,55c-.18-.33-11.61-3.39-11.71-3.44,2-1.31,13.41-7.5,17-9.83.18-.13.28-.23.29-.36A.61.61,0,0,0,67.7,41C61.62,31.43,56.08,19.7,50,10.08a1.11,1.11,0,0,0-.75-.5C38.19,6.68,15.78,0,15.93,0Q41.06,0,66.19,0h.42A11.86,11.86,0,0,1,78,9.19"/><path class="cls-1" d="M28.82,65.13c0,.09,0,.18.05.27-.1-.18-.1-.49-.05-.27"/><path class="cls-1" d="M71,120H52.4l-15-50.41L31,73.12l-2.08-8.77c.05.09,10.75-6.46,10.75-6.46l8.48,2.86Z"/><path class="cls-1" d="M29,120H.31S.25,102,.24,99.36a.91.91,0,0,1,.54-.83c4.73-3,9.45-6,14.18-8.94a.81.81,0,0,0,.43-1c-.38-1.7-.75-3.42-1.08-5.13-.1-.5-.18-.6-.66-.32-4.21,2.53-8.44,5-12.67,7.53L.25,91c.06.75-.38-9.71-.21-9.82,0,0,20.2-11.77,20.28-11.78l4.43,26.89-9.28,5.9,1.07,9.34L26.31,106Z"/><path class="cls-1" d="M16.19,46.44.26,55.77c0-7.54,0-13.49,0-21V11c0-.79,0-.79.72-.58,2.83.84,5.65,1.7,8.49,2.51a.73.73,0,0,1,.59.68c.58,3.1,3.36,17.43,6.14,32.86"/><path class="cls-1" d="M18.93,61.72.38,72.14c0-2.87-.06-4.89-.07-7.53L17.53,54.48c.48,2.68.95,4.76,1.4,7.24"/><path class="cls-1" d="M28.73,39,22.09,16.64c-1.15-.5,11.62,3.49,16,4.77a1.28,1.28,0,0,1,.88.78q2,4.39,3.93,8.77Z"/></g></g></svg>