<?xml version="1.0" encoding="utf-8"?>
<!-- Generator: Adobe Illustrator 25.0.0, SVG Export Plug-In . SVG Version: 6.00 Build 0)  -->
<svg version="1.1" id="Capa_1" xmlns="http://www.w3.org/2000/svg" xmlns:xlink="http://www.w3.org/1999/xlink" x="0px" y="0px"
	 viewBox="0 0 150.6 94.5" enable-background="new 0 0 150.6 94.5" xml:space="preserve">
<g transform="translate(-36.91 -36.84)">
	<path fill="#FFFFFF" d="M40.8,122.3v0.3c0.2,0,0.5,0,0.7,0.1c0.1,0,0.1,0.1,0.1,0.2c0,0.4-0.1,0.7-0.1,1.1l-0.5,3.2
		c-0.2,0.2-0.4,0.5-0.6,0.7c-0.2,0.2-0.5,0.3-0.7,0.4c-0.2,0.1-0.5,0.2-0.7,0.2c-0.2,0-0.4,0-0.6-0.1c-0.2-0.1-0.3-0.2-0.4-0.4
		c-0.1-0.2-0.1-0.3-0.1-0.5c0-0.1,0-0.2,0-0.3c0-0.3,0-0.7,0.1-1c0.1-0.7,0.2-1.5,0.4-2.4l0.3-1.4h-1.5v0.3c0.2,0,0.4,0,0.6,0.1
		c0.1,0,0.1,0.1,0.1,0.2c-0.1,0.9-0.2,1.7-0.4,2.6c-0.1,0.7-0.2,1.2-0.2,1.5c0,0.2,0,0.3,0,0.5c0,0.4,0.1,0.8,0.4,1.1
		c0.3,0.3,0.7,0.4,1.1,0.4c0.4,0,0.8-0.1,1.2-0.4c0.4-0.3,0.8-0.6,1.1-1c0,0.1-0.1,0.5-0.2,1.2l0,0c0.2,0,0.4,0,0.6,0h0.9v-0.3
		c-0.2,0-0.5,0-0.7-0.1c-0.1,0-0.1-0.1-0.1-0.2c0-0.1,0.1-1,0.4-2.5s0.4-2.5,0.5-2.9c0-0.1,0-0.1,0.1-0.2c0.2-0.1,0.4-0.1,0.6-0.1
		v-0.3h-1L40.8,122.3z"/>
	<path fill="#FFFFFF" d="M46.6,128.2c-0.1,0-0.1,0.1-0.2,0.1c0,0-0.1,0-0.1,0c0,0,0-0.1,0-0.1c0.1-0.6,0.2-1.3,0.4-1.9
		c0.1-0.5,0.2-1,0.3-1.5c0-0.1,0-0.2-0.1-0.2c0,0-0.1-0.1-0.2-0.1c-0.2,0-0.4,0.1-0.6,0.2c-0.4,0.2-0.7,0.4-1,0.8
		c-0.3,0.4-0.6,0.8-0.9,1.2l0,0l0.2-0.8c0.1-0.4,0.1-0.6,0.2-0.8c0-0.1,0-0.1,0-0.2c0-0.1,0-0.2-0.1-0.2h-0.3l-0.4,0.2l-0.5,0.3
		l-0.4,0.3l0.1,0.2l0.4-0.2l0.3-0.1h0.1c0,0,0.1,0,0.1,0c0,0,0,0.1,0,0.1c0,0.4-0.1,0.9-0.2,1.3c-0.2,0.9-0.3,1.7-0.5,2.3v0.1
		c0.2-0.1,0.3-0.1,0.5-0.1c0.1-0.5,0.2-0.9,0.2-1.1c0.1-0.4,0.2-0.8,0.4-1.2c0.2-0.3,0.4-0.6,0.6-0.8c0.2-0.2,0.4-0.4,0.7-0.6
		c0.1-0.1,0.2-0.1,0.3-0.1c0,0,0.1,0,0.1,0c0,0.1,0,0.1,0,0.2c-0.1,0.5-0.2,1.1-0.3,1.6c-0.2,0.7-0.3,1.2-0.3,1.4c0,0.1,0,0.2,0,0.3
		c0,0.1,0,0.2,0.1,0.3c0,0.1,0.1,0.1,0.2,0.1c0.1,0,0.1,0,0.2,0c0.2-0.1,0.4-0.2,0.6-0.4c0.2-0.1,0.3-0.3,0.6-0.5l-0.1-0.2
		C46.9,128,46.8,128.1,46.6,128.2L46.6,128.2z"/>
	<path fill="#FFFFFF" d="M53.1,122.2c-0.6,0-1.2,0.2-1.7,0.6c-0.4,0.4-0.6,0.9-0.7,1.5c0,0.3,0,0.5,0.2,0.7c0.1,0.2,0.2,0.4,0.4,0.5
		c0.3,0.1,0.6,0.2,0.9,0.3c0.2,0,0.4,0.1,0.6,0.2c0.1,0,0.2,0.1,0.3,0.2c0.1,0.1,0.2,0.2,0.2,0.3c0,0.1,0,0.3,0,0.4
		c0,0.4-0.1,0.8-0.4,1.1c-0.3,0.4-0.7,0.5-1.2,0.5c-0.4,0-0.9-0.1-1.2-0.4v-0.9h-0.2c0,0.3,0,0.5-0.1,0.8c0,0.2-0.1,0.4-0.1,0.7
		c0.2,0.1,0.4,0.2,0.6,0.3c0.2,0.1,0.5,0.1,0.7,0.1c0.2,0,0.5,0,0.7-0.1c0.2-0.1,0.4-0.2,0.6-0.3c0.2-0.1,0.4-0.3,0.6-0.5
		c0.2-0.2,0.3-0.4,0.4-0.7c0.1-0.2,0.1-0.5,0.1-0.8c0-0.2,0-0.3-0.1-0.5c-0.1-0.1-0.1-0.3-0.2-0.4c-0.1-0.1-0.3-0.2-0.4-0.3
		c-0.2-0.1-0.5-0.2-0.7-0.2c-0.3,0-0.5-0.1-0.8-0.3c-0.1-0.1-0.3-0.2-0.3-0.3c-0.1-0.2-0.1-0.4-0.1-0.6c0-0.2,0.1-0.5,0.2-0.7
		c0.1-0.2,0.3-0.4,0.5-0.5c0.2-0.1,0.5-0.2,0.7-0.2c0.2,0,0.4,0,0.6,0.1c0.2,0.1,0.3,0.2,0.4,0.3v0.7h0.2c0-0.3,0-0.5,0.1-0.8
		c0-0.2,0-0.3,0.1-0.5c-0.2-0.1-0.3-0.2-0.5-0.2C53.4,122.2,53.2,122.2,53.1,122.2L53.1,122.2z"/>
	<path fill="#FFFFFF" d="M56.5,122.2c-0.1,0-0.3,0.1-0.3,0.2c-0.1,0.1-0.1,0.3-0.1,0.4c0,0.1,0,0.2,0.1,0.3c0.1,0.1,0.1,0.1,0.2,0.1
		c0.1,0,0.3-0.1,0.3-0.2c0.1-0.1,0.1-0.3,0.1-0.4c0-0.1,0-0.2-0.1-0.3C56.7,122.2,56.6,122.1,56.5,122.2L56.5,122.2z"/>
	<path fill="#FFFFFF" d="M56.1,128.2c-0.1,0-0.1,0.1-0.2,0.1c0,0-0.1,0-0.1,0c0,0,0-0.1,0-0.1c0.1-0.7,0.3-1.5,0.5-2.2
		c0.1-0.5,0.2-0.8,0.2-1c0-0.1,0-0.2,0-0.2c0-0.1,0-0.2-0.1-0.3c0,0-0.1,0-0.1,0c-0.1,0-0.3,0.1-0.4,0.1c-0.3,0.2-0.7,0.4-1,0.7
		l0.1,0.2l0.5-0.4h0.1c0,0,0,0,0.1,0c0,0,0,0.1,0,0.1c-0.1,0.8-0.3,1.6-0.5,2.4c-0.1,0.3-0.1,0.5-0.2,0.6c0,0.1,0,0.2,0,0.3
		c0,0.1,0,0.2,0.1,0.3c0,0.1,0.1,0.1,0.2,0.1c0.1,0,0.2,0,0.3-0.1c0.4-0.2,0.7-0.5,1-0.8l-0.1-0.2C56.4,128,56.2,128.1,56.1,128.2z"
		/>
	<path fill="#FFFFFF" d="M59.1,124.7h-0.3c0.1-0.6,0.2-1,0.2-1.1s0.1-0.3,0.2-0.8l-0.1-0.1l-0.3,0.2l-0.4,0.2
		c-0.1,0.6-0.1,0.9-0.1,1c0,0.2,0,0.4-0.1,0.5l-0.3,0.1l-0.5,0.2v0.1h0.7c-0.1,0.8-0.2,1.4-0.3,1.7l-0.2,0.9c0,0.1,0,0.3-0.1,0.4
		c0,0.1,0,0.2,0,0.3c0,0.1,0,0.3,0.1,0.4c0,0.1,0.1,0.1,0.2,0.1c0.1,0,0.1,0,0.2,0c0.2-0.1,0.4-0.2,0.6-0.4c0.2-0.2,0.5-0.4,0.8-0.6
		l-0.1-0.2l-0.4,0.3c-0.1,0.1-0.2,0.1-0.3,0.2h-0.1c0,0-0.1,0-0.1,0c0-0.1,0-0.1,0-0.2c0,0,0-0.1,0-0.3s0.1-0.7,0.2-1.3
		s0.2-1,0.2-1.3h0.9l0.1-0.5l0,0C59.6,124.8,59.3,124.8,59.1,124.7z"/>
	<path fill="#FFFFFF" d="M61.8,122.2c-0.1,0-0.3,0.1-0.3,0.2c-0.1,0.1-0.2,0.3-0.2,0.4c0,0.1,0,0.2,0.1,0.3c0.1,0.1,0.1,0.1,0.2,0.1
		c0.1,0,0.3-0.1,0.3-0.2c0.1-0.1,0.1-0.3,0.1-0.4c0-0.1,0-0.2-0.1-0.3C62,122.2,61.9,122.2,61.8,122.2L61.8,122.2z"/>
	<path fill="#FFFFFF" d="M61.4,128.2c-0.1,0-0.1,0.1-0.2,0.1c0,0-0.1,0-0.1,0c0,0,0-0.1,0-0.1c0.1-0.7,0.3-1.5,0.5-2.2
		c0.1-0.5,0.2-0.8,0.2-1c0-0.1,0-0.2,0-0.2c0-0.1,0-0.2,0-0.3c0,0-0.1,0-0.1,0c-0.1,0-0.3,0.1-0.4,0.1c-0.2,0.1-0.5,0.3-1,0.7
		l0.1,0.2l0.6-0.4H61c0,0,0,0,0.1,0c0,0,0,0.1,0,0.1c-0.1,0.8-0.3,1.6-0.5,2.4l-0.1,0.6c0,0.1,0,0.2,0,0.3c0,0.1,0,0.2,0.1,0.3
		c0,0.1,0.1,0.1,0.2,0.1c0.1,0,0.2,0,0.3-0.1c0.4-0.2,0.7-0.5,1-0.8l-0.1-0.2C61.8,128,61.6,128.1,61.4,128.2L61.4,128.2z"/>
	<path fill="#FFFFFF" d="M65.2,124.4c-0.2-0.1-0.4-0.1-0.6-0.1c-0.2,0-0.5,0.1-0.7,0.2c-0.2,0.1-0.5,0.3-0.6,0.4
		c-0.2,0.2-0.4,0.4-0.5,0.6c-0.1,0.3-0.2,0.6-0.3,0.9c-0.1,0.3-0.1,0.7-0.1,1.1c0,0.4,0.1,0.8,0.3,1.1c0.2,0.2,0.5,0.4,0.8,0.3
		c0.3,0,0.6-0.1,0.8-0.2c0.3-0.2,0.5-0.4,0.7-0.6c0.2-0.3,0.4-0.6,0.5-0.9c0.2-0.4,0.3-0.9,0.3-1.4c0-0.3,0-0.6-0.2-0.8
		C65.6,124.7,65.4,124.5,65.2,124.4L65.2,124.4z M65.1,126.8c0,0.3-0.1,0.7-0.3,1c-0.1,0.2-0.2,0.4-0.4,0.6
		c-0.1,0.1-0.3,0.2-0.5,0.2c-0.2,0-0.3,0-0.4-0.1c-0.1-0.1-0.2-0.2-0.3-0.3c-0.1-0.2-0.1-0.4-0.1-0.7c0-0.7,0.1-1.3,0.3-2
		c0.2-0.5,0.5-0.8,0.9-0.8c0.2,0,0.5,0.1,0.6,0.3c0.1,0.3,0.2,0.6,0.2,0.9C65.1,126.2,65.1,126.5,65.1,126.8L65.1,126.8z"/>
	<path fill="#FFFFFF" d="M69.2,122.3v0.3h0.5c0.1,0,0.2,0.1,0.3,0.2c0,0,0,0.1,0,0.1c0,0.4-0.1,0.8-0.2,1.2c-0.2,1.3-0.4,2.3-0.5,3
		c-0.1,0.4-0.1,0.8-0.2,1.2c0,0-0.1,0.1-0.1,0.1c-0.2,0-0.4,0-0.5,0v0.3h2.1v-0.3c-0.2,0-0.5,0-0.7-0.1c0,0,0-0.1,0-0.2
		c0-0.4,0.1-0.8,0.2-1.2l0.3-2.1c0.2-1,0.3-1.7,0.4-2.2c0-0.1,0-0.1,0.1-0.2h0.1c0.2,0,0.3,0,0.5,0v-0.3h-0.9L69.2,122.3z"/>
	<path fill="#FFFFFF" d="M74.6,126.1c0.3-1.5,0.5-2.5,0.6-2.9c0.1-0.6,0.2-1,0.2-1.2l-0.1-0.1c-0.2,0.1-0.4,0.2-0.6,0.3
		c-0.2,0.1-0.5,0.1-0.7,0.1v0.2h0.6c0,0.1,0,0.1,0,0.2c0,0.2,0,0.3-0.1,0.5l-0.2,1.2c-0.2-0.1-0.5-0.1-0.7-0.1c-0.2,0-0.3,0-0.5,0.1
		c-0.3,0.1-0.6,0.3-0.8,0.6c-0.2,0.2-0.3,0.4-0.4,0.6c-0.2,0.4-0.3,0.8-0.4,1.2c-0.1,0.4-0.2,0.8-0.2,1.2c0,0.2,0,0.4,0.1,0.6
		c0.1,0.2,0.2,0.3,0.3,0.3c0.2,0,0.3-0.1,0.4-0.2c0.3-0.2,0.6-0.5,0.9-0.8c0.3-0.3,0.6-0.7,0.8-1.1l0,0c-0.2,0.7-0.2,1.2-0.3,1.3
		c0,0.1,0,0.2,0,0.3c0,0.1,0,0.2,0.1,0.3c0,0.1,0.1,0.1,0.1,0.1c0.1,0,0.1,0,0.2,0c0.2-0.1,0.4-0.2,0.6-0.4c0.2-0.2,0.4-0.3,0.6-0.5
		l-0.1-0.2c-0.2,0.1-0.3,0.3-0.5,0.4c-0.1,0-0.1,0.1-0.2,0.1c0,0-0.1,0-0.1,0c0-0.1,0-0.1,0-0.2c0-0.1,0-0.2,0-0.3
		C74.3,127.5,74.4,126.9,74.6,126.1z M74,126.1c-0.1,0.3-0.2,0.6-0.4,0.8c-0.1,0.3-0.3,0.5-0.5,0.7c-0.2,0.2-0.4,0.3-0.6,0.5
		c-0.1,0-0.1,0.1-0.2,0.1c0,0-0.1,0-0.1,0c0,0-0.1-0.1-0.1-0.1c0-0.1,0-0.2,0-0.3c0-0.4,0.1-0.8,0.1-1.2c0.1-0.3,0.2-0.6,0.3-0.9
		c0.1-0.2,0.1-0.4,0.3-0.6c0.1-0.1,0.1-0.2,0.3-0.2c0.2-0.1,0.3-0.1,0.5-0.1c0.3,0,0.6,0.1,0.8,0.2C74.2,125.3,74.1,125.7,74,126.1
		L74,126.1z"/>
	<path fill="#FFFFFF" d="M78,124.3c-0.2,0-0.4,0.1-0.6,0.2c-0.3,0.1-0.6,0.3-0.8,0.6c-0.2,0.2-0.3,0.3-0.4,0.6
		c-0.1,0.3-0.2,0.6-0.3,0.9c-0.1,0.4-0.2,0.8-0.2,1.2c0,0.2,0,0.5,0.1,0.7c0.1,0.2,0.2,0.3,0.4,0.4c0.1,0.1,0.3,0.1,0.5,0.1
		c0.3,0,0.6-0.1,0.8-0.2c0.3-0.2,0.7-0.4,1-0.7v-0.2c-0.3,0.2-0.6,0.4-0.9,0.5c-0.2,0.1-0.4,0.1-0.6,0.1c-0.2,0-0.3-0.1-0.5-0.2
		c-0.1-0.2-0.2-0.4-0.2-0.7c0-0.2,0-0.5,0.1-0.7l0.6-0.1c0.3-0.1,0.6-0.2,0.8-0.3c0.2-0.1,0.4-0.3,0.6-0.4c0.1-0.1,0.2-0.2,0.3-0.4
		c0.1-0.2,0.1-0.3,0.1-0.5c0-0.2-0.1-0.4-0.2-0.5C78.4,124.4,78.2,124.3,78,124.3L78,124.3z M77.9,125.8c-0.1,0.2-0.3,0.4-0.6,0.5
		c-0.3,0.1-0.6,0.3-0.9,0.3c0.1-0.4,0.2-0.8,0.4-1.2c0.1-0.2,0.2-0.4,0.4-0.5c0.1-0.1,0.3-0.2,0.5-0.2c0.1,0,0.2,0,0.3,0.1
		c0.1,0.1,0.1,0.2,0.1,0.4C78.1,125.4,78,125.6,77.9,125.8L77.9,125.8z"/>
	<path fill="#FFFFFF" d="M81.8,127.1c0-0.3,0.1-0.5,0.2-0.8c0.1-0.6,0.3-1.2,0.5-1.9l-0.1-0.1l-0.3,0.2c-0.1-0.1-0.3-0.1-0.4-0.1
		c-0.1,0-0.2,0-0.4,0c-0.2,0-0.3,0-0.5,0.1c-0.3,0.1-0.5,0.3-0.8,0.5c-0.2,0.1-0.3,0.3-0.4,0.5c-0.2,0.4-0.4,0.9-0.5,1.4
		c-0.1,0.4-0.2,0.9-0.2,1.4c0,0.2,0,0.4,0.1,0.6c0,0.1,0.1,0.1,0.2,0.1c0.1,0,0.1,0,0.2,0c0.2-0.1,0.4-0.3,0.6-0.4
		c0.3-0.2,0.5-0.5,0.7-0.7c0.1-0.2,0.3-0.4,0.5-0.7l0,0c-0.2,0.5-0.2,1.1-0.3,1.6c0,0.1,0,0.1,0,0.2c0,0.1,0.1,0.1,0.1,0.1
		c0,0,0.1,0,0.1,0c0.2-0.1,0.3-0.2,0.4-0.3l0.6-0.5v-0.2c-0.1,0.1-0.3,0.3-0.5,0.4c-0.1,0-0.1,0-0.2,0c0,0-0.1,0-0.1,0
		c0,0,0-0.1,0-0.1c0,0,0-0.1,0-0.1C81.6,127.7,81.7,127.4,81.8,127.1z M81.3,126.4c-0.3,0.7-0.7,1.3-1.3,1.7
		c-0.1,0.1-0.2,0.1-0.3,0.1h-0.1c0,0,0-0.1,0-0.1c0-0.1,0-0.1,0-0.2c0-0.6,0.1-1.1,0.3-1.6c0.1-0.4,0.2-0.7,0.4-1.1
		c0-0.1,0.1-0.2,0.2-0.3c0.2-0.1,0.4-0.1,0.6-0.1c0.3,0,0.5,0,0.7,0.2C81.7,125.4,81.5,125.9,81.3,126.4L81.3,126.4z"/>
	<path fill="#FFFFFF" d="M84.3,125.2c0.4-1.8,0.6-2.8,0.6-3.1l-0.1-0.1c-0.2,0.1-0.4,0.2-0.6,0.2c-0.2,0.1-0.5,0.1-0.7,0.1v0.2h0.4
		c0.1,0,0.2,0,0.2,0c0,0.1,0,0.1,0,0.2c0,0.1,0,0.2,0,0.2c0,0.5-0.1,1-0.3,1.5c-0.1,0.5-0.2,1.1-0.3,1.6c-0.2,1.2-0.4,1.8-0.4,2
		c0,0.1,0,0.2,0,0.3c0,0.1,0,0.2,0.1,0.3c0,0.1,0.1,0.1,0.2,0.1c0.1,0,0.2,0,0.2,0c0.2-0.1,0.5-0.3,0.7-0.4c0.2-0.1,0.4-0.3,0.5-0.4
		l-0.1-0.2l-0.3,0.3c-0.1,0.1-0.2,0.1-0.3,0.2h-0.1c0,0-0.1,0-0.1,0c0,0,0-0.1,0-0.1c0-0.1,0-0.1,0-0.2
		C83.9,127,84.1,126.1,84.3,125.2z"/>
	<path fill="#FFFFFF" d="M91.1,124.4c-0.1-0.1-0.1-0.1-0.2-0.1c-0.2,0-0.4,0.1-0.5,0.1c-0.3,0.1-0.6,0.3-0.8,0.6
		c-0.3,0.3-0.6,0.6-0.8,1c0-0.2,0-0.4,0.1-0.5c0-0.2,0-0.3,0.1-0.5c0-0.1,0-0.2,0-0.3c0,0,0-0.1,0-0.1c0,0,0.1-0.1,0-0.1
		c0,0-0.1-0.1-0.1,0c0,0,0,0,0,0c-0.2,0-0.3,0.1-0.5,0.2c-0.3,0.2-0.7,0.4-0.9,0.7l0.1,0.2l0.3-0.2l0.2-0.2h0.1c0,0,0.1,0,0.1,0
		c0,0,0,0.1,0,0.1c0,0.1,0,0.1,0,0.2c-0.1,0.5-0.1,0.9-0.2,1.4c-0.1,0.7-0.3,1.7-0.5,2.9l-0.3,1.7l0,0c0.2-0.1,0.4-0.1,0.6-0.2
		l0.2-1.3c0.1-0.5,0.1-0.9,0.2-1.2l0.4,0.1h0.2c0.1,0,0.2,0,0.3,0c0.3-0.1,0.6-0.3,0.8-0.5c0.3-0.2,0.5-0.4,0.7-0.7
		c0.2-0.3,0.3-0.6,0.4-1c0.1-0.4,0.2-0.9,0.2-1.3c0-0.2,0-0.4-0.1-0.6C91.1,124.7,91.1,124.5,91.1,124.4z M90.5,126.6
		c-0.1,0.4-0.3,0.8-0.5,1.2c-0.1,0.2-0.2,0.3-0.4,0.5c-0.2,0.1-0.3,0.2-0.5,0.1c-0.3,0-0.5-0.1-0.7-0.2c0.1-0.6,0.2-1,0.2-1.1
		c0.1-0.3,0.2-0.7,0.4-1c0.1-0.3,0.3-0.5,0.5-0.8c0.1-0.2,0.3-0.3,0.5-0.4c0.1-0.1,0.3-0.1,0.4-0.1c0.1,0,0.2,0,0.2,0.1
		c0.1,0.2,0.1,0.3,0.1,0.5C90.7,125.9,90.6,126.2,90.5,126.6L90.5,126.6z"/>
	<path fill="#FFFFFF" d="M94.5,127.1c0-0.3,0.1-0.5,0.2-0.8c0.1-0.6,0.3-1.2,0.5-1.9l-0.1-0.1l-0.3,0.2c-0.1-0.1-0.3-0.1-0.4-0.1
		c-0.1,0-0.2,0-0.4,0c-0.2,0-0.3,0-0.5,0.1c-0.3,0.1-0.5,0.3-0.8,0.5c-0.2,0.1-0.3,0.3-0.4,0.5c-0.2,0.4-0.4,0.9-0.5,1.4
		c-0.1,0.4-0.2,0.9-0.2,1.4c0,0.2,0,0.4,0.1,0.6c0,0.1,0.1,0.1,0.2,0.1h0.2c0.2-0.1,0.4-0.3,0.6-0.4c0.2-0.2,0.5-0.5,0.7-0.7
		c0.1-0.2,0.3-0.4,0.5-0.7l0,0c-0.1,0.5-0.2,1.1-0.3,1.6c0,0.1,0,0.1,0.1,0.2c0,0.1,0.1,0.1,0.1,0.1h0.1c0.2-0.1,0.3-0.2,0.5-0.3
		l0.6-0.5v-0.2c-0.1,0.1-0.3,0.3-0.5,0.4c-0.1,0-0.1,0-0.2,0c0,0,0,0-0.1,0c0,0,0-0.1,0-0.1c0,0,0-0.1,0-0.1
		C94.4,127.7,94.5,127.4,94.5,127.1L94.5,127.1z M94.1,126.4c-0.2,0.4-0.4,0.7-0.6,1c-0.2,0.3-0.4,0.5-0.7,0.7
		c-0.1,0.1-0.2,0.1-0.3,0.1h-0.1v-0.1c0-0.1,0-0.1,0-0.2c0-0.6,0.1-1.1,0.3-1.6c0.1-0.4,0.2-0.7,0.4-1.1c0-0.1,0.1-0.2,0.2-0.3
		c0.2-0.1,0.4-0.1,0.6-0.1c0.1,0,0.3,0,0.4,0c0.1,0,0.2,0.1,0.3,0.1C94.4,125.4,94.3,125.9,94.1,126.4L94.1,126.4z"/>
	<path fill="#FFFFFF" d="M98.3,124.4c-0.2,0.1-0.3,0.3-0.4,0.5c-0.3,0.5-0.6,0.9-0.9,1.4c0.1-0.5,0.2-0.9,0.2-1.3c0-0.1,0-0.3,0-0.4
		c0-0.1,0-0.1,0-0.2c0,0-0.1,0-0.1,0c-0.2,0-0.3,0.1-0.4,0.2c-0.4,0.2-0.7,0.5-1,0.8l0.1,0.1c0.2-0.2,0.4-0.3,0.7-0.4c0,0,0,0,0.1,0
		c0,0.1,0,0.1,0,0.2v0.6c-0.1,0.5-0.2,1.1-0.3,1.8c-0.1,0.3-0.2,0.8-0.3,1.3H96l0.6-0.2c0.1-0.8,0.3-1.3,0.3-1.5
		c0.1-0.4,0.3-0.8,0.5-1.2c0.2-0.3,0.3-0.5,0.6-0.7c0.1-0.1,0.2-0.1,0.3-0.1c0.1,0,0.2,0.1,0.3,0.2h0.1c0-0.3,0.1-0.7,0.1-1
		c-0.1,0-0.1,0-0.2,0C98.5,124.3,98.4,124.3,98.3,124.4z"/>
	<path fill="#FFFFFF" d="M101.7,127.1c0-0.3,0.1-0.5,0.2-0.8c0.1-0.6,0.3-1.2,0.5-1.9l-0.1-0.1l-0.3,0.2c-0.1-0.1-0.3-0.1-0.5-0.1
		c-0.1,0-0.2,0-0.4,0c-0.2,0-0.3,0-0.5,0.1c-0.3,0.1-0.5,0.3-0.8,0.5c-0.2,0.1-0.3,0.3-0.4,0.5c-0.2,0.4-0.3,0.9-0.4,1.3
		c-0.1,0.4-0.2,0.9-0.2,1.4c0,0.2,0,0.4,0.1,0.6c0,0.1,0.1,0.1,0.2,0.1h0.2c0.2-0.1,0.4-0.3,0.6-0.4c0.2-0.2,0.5-0.5,0.7-0.7
		c0.1-0.2,0.3-0.4,0.5-0.7l0,0c-0.1,0.5-0.2,1.1-0.3,1.6c0,0.1,0,0.1,0.1,0.2c0,0.1,0.1,0.1,0.1,0.1h0.1c0.2-0.1,0.3-0.2,0.5-0.3
		l0.6-0.5v-0.2c-0.1,0.1-0.3,0.3-0.5,0.4c-0.1,0-0.1,0-0.2,0c0,0,0,0-0.1,0c0,0,0-0.1,0-0.1v-0.1
		C101.6,127.6,101.6,127.4,101.7,127.1z M101.3,126.4c-0.2,0.4-0.4,0.7-0.6,1c-0.2,0.3-0.4,0.5-0.7,0.7c-0.1,0.1-0.2,0.1-0.3,0.1
		c0,0,0,0-0.1,0c0,0,0-0.1,0-0.1c0-0.1,0-0.1,0-0.2c0-0.6,0.1-1.1,0.3-1.6c0.1-0.4,0.2-0.7,0.4-1.1c0-0.1,0.1-0.2,0.2-0.3
		c0.2-0.1,0.4-0.1,0.6-0.1c0.1,0,0.2,0,0.4,0c0.1,0,0.2,0.1,0.3,0.1C101.7,125.4,101.5,125.9,101.3,126.4L101.3,126.4z"/>
	<path fill="#FFFFFF" d="M108.8,128.2c-0.1,0-0.1,0-0.2,0c0,0-0.1,0-0.1,0c0-0.1,0-0.1,0-0.2c0-0.1,0-0.2,0-0.3
		c0-0.4,0.1-0.7,0.2-1.1c0.1-0.5,0.2-1,0.3-1.4l0.1-0.8v-0.1l-0.4,0.2c-0.1,0.4-0.2,0.9-0.3,1.3c-0.1,0.3-0.2,0.5-0.4,0.8
		c-0.2,0.4-0.5,0.7-0.7,1c-0.2,0.2-0.5,0.4-0.7,0.6c-0.1,0-0.1,0.1-0.2,0.1c0,0-0.1,0-0.1,0c0-0.1,0-0.1,0-0.2c0.1-1,0.3-2,0.6-3
		c0-0.1,0.1-0.3,0.1-0.4c0-0.1,0-0.1,0-0.2c0,0-0.1-0.1-0.1-0.1c-0.1,0-0.3,0.1-0.4,0.2c-0.4,0.2-0.7,0.4-1,0.7l0.1,0.2
		c0.2-0.2,0.4-0.3,0.7-0.4c0,0,0,0,0.1,0c0,0,0,0.1,0,0.1c0,0.2,0,0.4-0.1,0.5c-0.1,0.4-0.2,1-0.3,1.7c-0.1,0.4-0.1,0.7-0.2,1.1
		c0,0.1,0,0.3,0.1,0.4c0,0.1,0.1,0.1,0.2,0.1c0.1,0,0.2,0,0.2,0c0.3-0.2,0.6-0.3,0.8-0.6c0.3-0.2,0.5-0.5,0.8-0.8
		c0.2-0.3,0.4-0.5,0.6-0.8l0,0l-0.2,0.8c-0.1,0.4-0.2,0.7-0.2,0.8c0,0.1,0,0.2,0,0.2c0,0.1,0,0.2,0.1,0.2c0,0.1,0.1,0.1,0.1,0.1
		c0.1,0,0.2-0.1,0.3-0.1c0.4-0.2,0.7-0.5,1-0.8l-0.1-0.2C109.2,127.9,109,128,108.8,128.2z"/>
	<path fill="#FFFFFF" d="M113.5,128.2c-0.1,0-0.1,0.1-0.2,0.1c0,0-0.1,0-0.1,0c0,0,0-0.1,0-0.1c0.1-0.6,0.2-1.3,0.4-1.9
		c0.1-0.5,0.2-1,0.3-1.5c0-0.1,0-0.2-0.1-0.2c-0.1,0-0.1-0.1-0.2-0.1c-0.2,0-0.4,0.1-0.6,0.2c-0.4,0.2-0.7,0.4-1,0.8
		c-0.3,0.4-0.6,0.8-0.8,1.2l0,0l0.2-0.8c0.1-0.4,0.1-0.6,0.2-0.8c0-0.1,0-0.1,0-0.2c0-0.1,0-0.2-0.1-0.2c0,0-0.1,0-0.1,0h-0.1
		l-0.4,0.2l-0.5,0.3l-0.4,0.3v0.2l0.4-0.2l0.3-0.1h0.1c0,0,0.1,0,0.1,0c0,0,0,0.1,0,0.1c0,0.4-0.1,0.9-0.2,1.3
		c-0.2,0.9-0.3,1.7-0.5,2.3v0.1c0.2-0.1,0.4-0.1,0.5-0.1c0.1-0.5,0.1-0.9,0.2-1.1c0.1-0.4,0.2-0.8,0.4-1.2c0.2-0.3,0.4-0.6,0.6-0.8
		c0.2-0.2,0.4-0.4,0.7-0.6c0.1-0.1,0.2-0.1,0.3-0.1c0,0,0.1,0,0.1,0c0,0.1,0,0.1,0,0.2c-0.1,0.5-0.2,1.1-0.3,1.6
		c-0.2,0.7-0.3,1.2-0.3,1.4c0,0.1,0,0.2,0,0.3c0,0.1,0,0.2,0.1,0.3c0,0.1,0.1,0.1,0.2,0.1c0.1,0,0.1,0,0.2,0
		c0.2-0.1,0.4-0.2,0.6-0.4c0.2-0.1,0.3-0.3,0.6-0.5l-0.1-0.2C113.9,128,113.7,128.1,113.5,128.2z"/>
	<path fill="#FFFFFF" d="M123.3,122.3l-0.4,0.8c-0.1,0.2-0.2,0.5-0.4,0.8l-2,3.7l-1.3-5.4h-1.4v0.3c0.2,0,0.3,0,0.5,0
		c0.1,0,0.2,0.1,0.3,0.1c0,0.1,0.1,0.1,0.1,0.2c0,0.1-0.1,0.7-0.4,1.8s-0.5,1.7-0.5,2c-0.1,0.5-0.3,1-0.5,1.5c0,0.1-0.1,0.1-0.1,0.1
		c-0.2,0.1-0.3,0.1-0.5,0.1v0.3h1.9v-0.3c-0.2,0-0.4,0-0.6,0c-0.1,0-0.1-0.1-0.1-0.2c0-0.3,0.1-0.6,0.2-0.9c0.1-0.6,0.5-1.9,1-3.7
		l1.3,5.3h0.2c0.1-0.2,0.2-0.5,0.3-0.7c0.2-0.4,0.4-0.8,0.6-1.1c0.6-1.1,1.1-2.1,1.5-2.8c0.2-0.4,0.4-0.7,0.6-1l-0.3,4.2
		c0,0.2,0,0.5-0.1,0.7c0,0.1-0.1,0.1-0.1,0.1c-0.2,0.1-0.4,0.1-0.6,0.1v0.3h2.3v-0.3c-0.2,0-0.4,0-0.6-0.1c-0.1,0-0.1-0.2-0.1-0.3
		v-1.2l0.1-1.8c0-0.5,0.1-1,0.1-1.6c0-0.2,0-0.4,0.1-0.6c0,0,0-0.1,0.1-0.1c0,0,0.1,0,0.1-0.1h0.5v-0.3c-0.2,0-0.5,0-0.7,0
		C123.8,122.3,123.6,122.3,123.3,122.3L123.3,122.3z"/>
	<path fill="#FFFFFF" d="M127.8,124.4c-0.2-0.1-0.4-0.1-0.6-0.1c-0.2,0-0.5,0.1-0.7,0.2c-0.2,0.1-0.4,0.3-0.6,0.4
		c-0.2,0.2-0.4,0.4-0.5,0.6c-0.1,0.3-0.2,0.6-0.3,0.9c-0.1,0.3-0.1,0.7-0.1,1.1c0,0.4,0.1,0.8,0.3,1.1c0.2,0.2,0.5,0.4,0.8,0.3
		c0.3,0,0.6-0.1,0.8-0.2c0.3-0.2,0.5-0.4,0.7-0.6c0.2-0.3,0.4-0.6,0.5-0.9c0.2-0.5,0.3-0.9,0.3-1.4c0-0.3,0-0.6-0.2-0.8
		C128.2,124.7,128,124.5,127.8,124.4z M127.7,126.8c0,0.3-0.1,0.7-0.3,1c-0.1,0.2-0.2,0.4-0.4,0.6c-0.1,0.1-0.3,0.2-0.5,0.2
		c-0.2,0-0.3,0-0.4-0.1c-0.1-0.1-0.2-0.2-0.3-0.3c-0.1-0.2-0.1-0.4-0.1-0.7c0-0.7,0.1-1.3,0.3-2c0.2-0.5,0.5-0.8,0.9-0.8
		c0.2,0,0.5,0.1,0.6,0.3c0.1,0.3,0.2,0.6,0.2,0.9C127.7,126.2,127.7,126.5,127.7,126.8L127.7,126.8z"/>
	<path fill="#FFFFFF" d="M134.7,128.1l-0.3,0.1h-0.1c0,0-0.1,0-0.1,0c0,0,0-0.1,0-0.1c0.1-0.5,0.2-1,0.3-1.5
		c0.2-0.7,0.3-1.2,0.4-1.6c0-0.1,0-0.3,0-0.4c0-0.1,0-0.1,0-0.2c0,0-0.1-0.1-0.2-0.1c-0.2,0-0.4,0.1-0.6,0.2
		c-0.3,0.2-0.7,0.4-0.9,0.7c-0.3,0.3-0.6,0.7-0.9,1.1c0.2-0.7,0.3-1.1,0.3-1.2c0-0.2,0-0.3,0-0.5c0-0.1-0.1-0.2-0.2-0.2c0,0,0,0,0,0
		c-0.2,0-0.4,0.1-0.6,0.2c-0.4,0.2-0.7,0.5-0.9,0.8c-0.2,0.3-0.5,0.6-0.7,0.9c0.2-0.8,0.2-1.3,0.2-1.3c0-0.1,0-0.2,0-0.3
		c0-0.1,0-0.1,0-0.2c0,0-0.1,0-0.1,0h-0.2c-0.2,0.1-0.4,0.2-0.6,0.3c-0.2,0.1-0.4,0.3-0.5,0.4v0.2c0.2-0.1,0.3-0.2,0.5-0.3
		c0.1,0,0.1-0.1,0.2-0.1c0,0,0.1,0,0.1,0c0,0.1,0,0.1,0,0.2c0,0.1,0,0.2,0,0.4c0,0.4-0.1,0.8-0.2,1.2l-0.2,1.1l-0.2,0.9v0.1l0.5-0.1
		c0.1-0.6,0.2-1.1,0.3-1.5c0.2-0.6,0.5-1.2,0.9-1.7c0.2-0.2,0.4-0.3,0.6-0.5c0.1-0.1,0.2-0.1,0.3-0.1c0,0,0.1,0,0.1,0
		c0,0.1,0,0.1,0,0.2c0,0.2,0,0.4-0.1,0.5c-0.1,0.5-0.2,1-0.3,1.4c-0.1,0.6-0.2,1.2-0.4,1.7v0.1l0.5-0.1c0.2-0.7,0.3-1.3,0.4-1.6
		c0.1-0.3,0.2-0.6,0.4-0.9c0.2-0.3,0.3-0.5,0.6-0.7c0.2-0.2,0.4-0.3,0.6-0.5c0.1-0.1,0.2-0.1,0.4-0.1c0,0,0.1,0,0.1,0
		c0,0,0,0.1,0,0.1c0,0.1-0.1,0.2-0.1,0.4c-0.1,0.2-0.2,0.6-0.3,1.1l-0.3,1.3c-0.1,0.2-0.1,0.4-0.1,0.5c0,0.1,0,0.2,0,0.2
		c0,0.1,0,0.2,0.1,0.3c0,0.1,0.1,0.1,0.2,0.1c0.1,0,0.1,0,0.2,0c0.2-0.1,0.4-0.2,0.6-0.4l0.6-0.4l-0.1-0.2L134.7,128.1z"/>
	<path fill="#FFFFFF" d="M137.9,124.3c-0.2,0-0.4,0.1-0.6,0.2c-0.3,0.2-0.6,0.3-0.8,0.6c-0.2,0.2-0.3,0.3-0.4,0.6
		c-0.1,0.3-0.2,0.6-0.3,0.9c-0.1,0.4-0.2,0.8-0.2,1.2c0,0.2,0,0.5,0.1,0.7c0.1,0.2,0.2,0.3,0.4,0.4c0.1,0.1,0.3,0.1,0.5,0.1
		c0.3,0,0.6-0.1,0.8-0.2c0.4-0.2,0.7-0.4,1-0.7v-0.2c-0.3,0.2-0.5,0.4-0.8,0.5c-0.2,0.1-0.4,0.1-0.6,0.1c-0.2,0-0.4-0.1-0.5-0.2
		c-0.1-0.2-0.2-0.4-0.2-0.7c0-0.2,0-0.5,0.1-0.7l0.6-0.1c0.3-0.1,0.6-0.2,0.8-0.3c0.2-0.1,0.4-0.3,0.6-0.4c0.1-0.1,0.2-0.2,0.3-0.4
		c0.1-0.2,0.1-0.3,0.1-0.5c0-0.2-0.1-0.4-0.2-0.5C138.4,124.4,138.2,124.3,137.9,124.3z M137.9,125.8c-0.1,0.2-0.3,0.4-0.6,0.5
		c-0.3,0.1-0.6,0.3-0.9,0.3c0.1-0.4,0.2-0.8,0.4-1.2c0.1-0.2,0.2-0.4,0.4-0.5c0.1-0.1,0.3-0.2,0.5-0.2c0.1,0,0.2,0,0.3,0.1
		c0.1,0.1,0.1,0.2,0.1,0.4C138,125.4,138,125.6,137.9,125.8L137.9,125.8z"/>
	<path fill="#FFFFFF" d="M142.7,128.2c-0.1,0-0.1,0.1-0.2,0.1c0,0-0.1,0-0.1,0c0,0,0-0.1,0-0.1c0.1-0.6,0.2-1.3,0.4-1.9
		c0.1-0.5,0.2-1,0.3-1.5c0-0.1,0-0.2-0.1-0.2c-0.1,0-0.1-0.1-0.2-0.1c-0.2,0-0.4,0.1-0.6,0.2c-0.4,0.2-0.7,0.4-1,0.8
		c-0.3,0.4-0.6,0.8-0.8,1.2l0,0l0.2-0.8c0.1-0.4,0.1-0.6,0.2-0.8c0-0.1,0-0.1,0-0.2c0-0.1,0-0.2-0.1-0.2h-0.3l-0.4,0.2l-0.5,0.3
		l-0.4,0.3v0.2l0.4-0.2l0.3-0.1h0.1c0,0,0.1,0,0.1,0c0,0,0,0.1,0,0.1c0,0.4-0.1,0.9-0.2,1.3c-0.2,0.9-0.3,1.7-0.5,2.3v0.1
		c0.2-0.1,0.4-0.1,0.5-0.1c0.1-0.5,0.1-0.9,0.2-1.1c0.1-0.4,0.2-0.8,0.4-1.2c0.2-0.3,0.4-0.6,0.6-0.8c0.2-0.2,0.4-0.4,0.7-0.6
		c0.1-0.1,0.2-0.1,0.3-0.1c0,0,0.1,0,0.1,0c0,0.1,0,0.1,0,0.2c-0.1,0.5-0.2,1.1-0.3,1.6c-0.2,0.7-0.3,1.2-0.3,1.4c0,0.1,0,0.2,0,0.3
		c0,0.1,0,0.2,0.1,0.3c0,0.1,0.1,0.1,0.2,0.1c0.1,0,0.1,0,0.2,0c0.2-0.1,0.4-0.2,0.6-0.4c0.2-0.1,0.3-0.3,0.6-0.5l-0.1-0.2
		C143,128,142.8,128.1,142.7,128.2z"/>
	<path fill="#FFFFFF" d="M145.8,124.7h-0.3c0.1-0.6,0.2-1,0.2-1.1s0.1-0.3,0.2-0.8l-0.1-0.1l-0.3,0.2l-0.4,0.2
		c-0.1,0.6-0.1,0.9-0.1,1c0,0.2,0,0.4-0.1,0.5l-0.3,0.1l-0.5,0.2v0.1h0.7c-0.1,0.8-0.2,1.4-0.3,1.7l-0.2,0.9v0.4c0,0.1,0,0.2,0,0.3
		c0,0.1,0,0.3,0.1,0.4c0,0.1,0.1,0.1,0.2,0.1c0.1,0,0.1,0,0.2,0c0.2-0.1,0.4-0.2,0.6-0.4l0.8-0.6l-0.1-0.2l-0.4,0.3
		c-0.1,0.1-0.2,0.1-0.3,0.2h-0.1c0,0-0.1,0-0.1,0c0-0.1,0-0.1,0-0.2v-0.3c0-0.1,0.1-0.7,0.2-1.3s0.2-1,0.2-1.3h0.9l0.1-0.5l0,0
		C146.3,124.8,146.1,124.8,145.8,124.7L145.8,124.7z"/>
	<path fill="#FFFFFF" d="M149.5,124.4c-0.2-0.1-0.4-0.1-0.6-0.1c-0.2,0-0.5,0.1-0.7,0.2c-0.2,0.1-0.4,0.3-0.6,0.4
		c-0.2,0.2-0.4,0.4-0.5,0.6c-0.1,0.3-0.2,0.6-0.3,0.9c-0.1,0.3-0.1,0.7-0.1,1.1c0,0.4,0.1,0.8,0.3,1.1c0.2,0.2,0.5,0.4,0.8,0.3
		c0.3,0,0.6-0.1,0.8-0.2c0.3-0.2,0.5-0.4,0.7-0.6c0.2-0.3,0.4-0.6,0.5-0.9c0.2-0.5,0.3-0.9,0.3-1.4c0-0.3,0-0.6-0.2-0.8
		C149.8,124.7,149.7,124.5,149.5,124.4z M149.3,126.8c0,0.3-0.1,0.7-0.3,1c-0.1,0.2-0.2,0.4-0.4,0.6c-0.1,0.1-0.3,0.2-0.5,0.2
		c-0.2,0-0.3,0-0.4-0.1c-0.1-0.1-0.2-0.2-0.3-0.3c-0.1-0.2-0.1-0.4-0.1-0.7c0-0.7,0.1-1.3,0.3-2c0.2-0.5,0.5-0.8,0.9-0.8
		c0.2,0,0.5,0.1,0.6,0.3c0.1,0.3,0.2,0.6,0.2,0.9C149.4,126.2,149.4,126.5,149.3,126.8L149.3,126.8z"/>
	<path fill="#FFFFFF" d="M154.9,122.3h-1.4v0.3c0.2,0,0.5,0,0.7,0.1c0.1,0,0.1,0.1,0.1,0.2c0,0.1,0,0.1,0,0.2
		c-0.1,0.5-0.2,1.3-0.4,2.4s-0.3,1.8-0.3,2c0,0.3-0.1,0.6-0.2,0.9l-0.5,0.2v0.2h3.5c0.2,0,0.5,0,0.7,0c0.1-0.5,0.1-0.8,0.1-0.8
		c0-0.2,0-0.4,0.1-0.6h-0.2c-0.1,0.3-0.1,0.6-0.3,0.9c0,0.1-0.1,0.1-0.2,0.1c-0.4,0.1-0.9,0.1-1.3,0.1h-1.2c0-0.2,0-0.4,0.1-0.6
		l0.3-2.1h2.1l0.2-0.4h-2.2c0.2-1.1,0.3-1.9,0.4-2.5c0.3,0,0.6,0,0.8,0h0.8c0.1,0,0.2,0,0.3,0.1c0,0,0,0,0.1,0v0.9h0.2
		c0-0.5,0.1-0.9,0.2-1.4h-0.7L154.9,122.3z"/>
	<path fill="#FFFFFF" d="M160,124.3c-0.1,0-0.3,0-0.4,0c-0.3,0.1-0.6,0.3-0.9,0.6c-0.1,0.1-0.2,0.3-0.3,0.4
		c-0.1,0.2-0.1,0.3-0.1,0.5c0,0.2,0,0.3,0.1,0.5c0.1,0.1,0.2,0.2,0.3,0.3c0.2,0.1,0.5,0.2,0.7,0.2c0.2,0,0.3,0.1,0.5,0.1
		c0.1,0,0.1,0.1,0.2,0.2c0.1,0.1,0.1,0.2,0.1,0.3c0,0.2,0,0.4-0.1,0.5c-0.1,0.2-0.2,0.3-0.4,0.4c-0.2,0.1-0.3,0.1-0.5,0.1
		c-0.2,0-0.3,0-0.5-0.1c-0.1-0.1-0.3-0.2-0.4-0.3v-0.8h-0.2c0,0.2,0,0.4-0.1,0.5c0,0.2-0.1,0.5-0.1,0.7c0.2,0.1,0.3,0.2,0.5,0.2
		c0.1,0,0.3,0,0.4,0c0.3,0,0.5-0.1,0.7-0.2c0.2-0.1,0.4-0.3,0.6-0.4c0.2-0.1,0.3-0.3,0.4-0.5c0.1-0.2,0.1-0.4,0.1-0.6
		c0-0.2,0-0.3-0.1-0.5c-0.1-0.1-0.2-0.2-0.4-0.3c-0.2-0.1-0.4-0.1-0.7-0.2c-0.2,0-0.5-0.1-0.6-0.2c-0.1-0.1-0.2-0.3-0.2-0.4
		c0-0.2,0.1-0.4,0.2-0.6c0.2-0.2,0.4-0.3,0.6-0.3c0.2,0,0.3,0,0.4,0.1c0.1,0.1,0.3,0.1,0.4,0.3v0.6h0.2c0-0.2,0-0.5,0.1-0.7
		c0-0.1,0-0.3,0.1-0.4c-0.3-0.2-0.6-0.2-0.9-0.2L160,124.3z"/>
	<path fill="#FFFFFF" d="M165,124.4c-0.1-0.1-0.2-0.1-0.3-0.1c-0.2,0-0.4,0.1-0.5,0.1c-0.3,0.1-0.6,0.3-0.8,0.6
		c-0.3,0.3-0.6,0.6-0.8,1c0-0.2,0-0.4,0.1-0.5l0.1-0.5v-0.5c0-0.1,0-0.1-0.1-0.2c0,0-0.1,0-0.1,0c-0.2,0-0.3,0.1-0.5,0.2
		c-0.3,0.2-0.7,0.4-0.9,0.7l0.1,0.2l0.3-0.2c0.1-0.1,0.2-0.1,0.3-0.2h0.2c0,0,0.1,0,0.1,0c0,0,0,0.1,0,0.1v0.2
		c0,0.5-0.1,0.9-0.2,1.4c-0.1,0.7-0.3,1.7-0.5,2.9c-0.1,0.4-0.2,1-0.3,1.7l0,0c0.2-0.1,0.4-0.1,0.6-0.2l0.2-1.3l0.2-1.2l0.4,0.1h0.2
		c0.1,0,0.2,0,0.3,0c0.3-0.1,0.6-0.3,0.8-0.5c0.3-0.2,0.5-0.4,0.7-0.7c0.2-0.3,0.4-0.6,0.5-0.9c0.1-0.4,0.2-0.9,0.2-1.3
		c0-0.2,0-0.4-0.1-0.6C165.1,124.7,165.1,124.5,165,124.4L165,124.4z M164.4,126.6c-0.1,0.4-0.3,0.8-0.5,1.2
		c-0.1,0.2-0.2,0.4-0.4,0.5c-0.2,0.1-0.3,0.2-0.5,0.1c-0.3,0-0.5-0.1-0.7-0.2c0.1-0.6,0.2-1,0.2-1.1c0.1-0.3,0.2-0.7,0.3-1
		c0.1-0.3,0.3-0.5,0.5-0.8c0.1-0.1,0.3-0.3,0.5-0.4c0.1-0.1,0.3-0.1,0.4-0.1c0.1,0,0.2,0,0.2,0.1c0.1,0.2,0.1,0.3,0.1,0.5
		C164.6,125.9,164.5,126.2,164.4,126.6L164.4,126.6z"/>
	<path fill="#FFFFFF" d="M167.1,128.2c-0.1,0-0.1,0.1-0.2,0.1c0,0-0.1,0-0.1,0c0,0,0-0.1,0-0.1c0.1-0.7,0.3-1.5,0.5-2.2
		c0.1-0.5,0.2-0.8,0.2-1c0-0.1,0-0.2,0-0.2c0-0.1,0-0.2,0-0.3c0,0-0.1,0-0.1,0c-0.1,0-0.3,0.1-0.4,0.1c-0.3,0.2-0.7,0.4-1,0.7
		l0.1,0.2l0.6-0.4h0.1c0,0,0,0,0.1,0c0,0,0,0.1,0,0.1c-0.1,0.8-0.3,1.6-0.5,2.4c-0.1,0.3-0.1,0.5-0.2,0.6c0,0.1,0,0.2,0,0.3
		c0,0.1,0,0.2,0.1,0.3c0,0.1,0.1,0.1,0.2,0.1c0.1,0,0.2,0,0.3-0.1c0.4-0.2,0.7-0.5,1-0.8l-0.1-0.2
		C167.4,128,167.2,128.1,167.1,128.2L167.1,128.2z"/>
	<path fill="#FFFFFF" d="M167.5,122.2c-0.1,0-0.3,0.1-0.3,0.2c-0.1,0.1-0.1,0.3-0.1,0.4c0,0.1,0,0.2,0.1,0.3
		c0.1,0.1,0.1,0.1,0.2,0.1c0.1,0,0.3-0.1,0.3-0.2c0.1-0.1,0.1-0.3,0.1-0.4c0-0.1,0-0.2-0.1-0.3C167.7,122.2,167.6,122.1,167.5,122.2
		L167.5,122.2z"/>
	<path fill="#FFFFFF" d="M170.8,124.4c-0.2,0.1-0.3,0.3-0.4,0.5c-0.3,0.5-0.6,0.9-0.9,1.4l0.3-1.3c0-0.1,0-0.3,0-0.4
		c0-0.1,0-0.1,0-0.2c0,0-0.1,0-0.1,0c-0.2,0-0.3,0.1-0.4,0.2c-0.4,0.2-0.7,0.5-1,0.8l0.1,0.1c0.2-0.2,0.4-0.3,0.7-0.4c0,0,0,0,0.1,0
		c0,0.1,0,0.1,0,0.2c0,0.2,0,0.4-0.1,0.6c-0.1,0.5-0.2,1.1-0.3,1.8c-0.1,0.3-0.2,0.8-0.3,1.3h0.1l0.6-0.2c0.1-0.8,0.2-1.3,0.3-1.5
		c0.1-0.4,0.3-0.8,0.5-1.2c0.2-0.3,0.3-0.5,0.6-0.7c0.1-0.1,0.2-0.1,0.3-0.1c0.1,0,0.2,0.1,0.3,0.2h0.1c0-0.3,0.1-0.7,0.1-1
		c-0.1,0-0.1,0-0.2,0C171,124.3,170.9,124.3,170.8,124.4z"/>
	<path fill="#FFFFFF" d="M172.8,128.2c-0.1,0-0.1,0.1-0.2,0.1c0,0-0.1,0-0.1,0c0,0,0-0.1,0-0.1c0.1-0.7,0.3-1.5,0.5-2.2
		c0.1-0.5,0.2-0.8,0.2-1c0-0.1,0-0.2,0-0.2c0-0.1,0-0.2-0.1-0.3c0,0-0.1,0-0.1,0c-0.1,0-0.3,0.1-0.4,0.1c-0.2,0.1-0.5,0.3-1,0.7
		l0.1,0.2l0.6-0.4h0.1v0.1c-0.1,0.8-0.3,1.6-0.5,2.4c-0.1,0.3-0.1,0.5-0.1,0.6c0,0.1,0,0.2,0,0.3c0,0.1,0,0.2,0.1,0.3
		c0,0.1,0.1,0.1,0.2,0.1c0.1,0,0.2,0,0.3-0.1c0.4-0.2,0.7-0.5,1-0.8l-0.1-0.2C173.1,128,173,128.1,172.8,128.2z"/>
	<path fill="#FFFFFF" d="M173.3,122.2c-0.1,0-0.3,0.1-0.3,0.2c-0.1,0.1-0.2,0.3-0.2,0.4c0,0.1,0,0.2,0.1,0.3
		c0.1,0.1,0.2,0.1,0.3,0.1c0.1,0,0.3-0.1,0.3-0.2c0.1-0.1,0.1-0.3,0.1-0.4c0-0.1,0-0.2-0.1-0.3C173.5,122.2,173.4,122.2,173.3,122.2
		L173.3,122.2z"/>
	<path fill="#FFFFFF" d="M175.9,124.7h-0.3c0.1-0.6,0.2-1,0.2-1.1s0.1-0.3,0.2-0.8l-0.1-0.1l-0.3,0.2l-0.4,0.2
		c-0.1,0.6-0.1,0.9-0.1,1c0,0.2,0,0.4-0.1,0.5l-0.3,0.1l-0.5,0.2v0.1h0.7c-0.1,0.8-0.2,1.4-0.3,1.7l-0.2,0.9l-0.1,0.4
		c0,0.1,0,0.2,0,0.3c0,0.1,0,0.3,0.1,0.4c0,0.1,0.1,0.1,0.2,0.1c0.1,0,0.1,0,0.2,0c0.2-0.1,0.4-0.2,0.6-0.4c0.3-0.2,0.5-0.4,0.8-0.6
		l-0.1-0.2l-0.4,0.3c-0.1,0.1-0.2,0.1-0.3,0.2h-0.1c0,0-0.1,0-0.1,0c0-0.1,0-0.1,0-0.2v-0.3c0-0.1,0.1-0.7,0.2-1.3s0.2-1,0.2-1.3
		h0.9l0.1-0.5l0,0C176.3,124.8,176.1,124.8,175.9,124.7L175.9,124.7z"/>
	<path fill="#FFFFFF" d="M180.5,128.2c-0.1,0-0.1,0-0.2,0c0,0-0.1,0-0.1,0c0-0.1,0-0.1,0-0.2c0-0.1,0-0.2,0-0.3
		c0-0.4,0.1-0.7,0.2-1.1c0.1-0.5,0.2-1,0.3-1.4l0.1-0.8l-0.1-0.1l-0.4,0.2c-0.1,0.4-0.2,0.9-0.3,1.3c-0.1,0.3-0.2,0.5-0.4,0.8
		c-0.2,0.4-0.5,0.7-0.7,1c-0.2,0.2-0.5,0.4-0.7,0.6c-0.1,0-0.1,0.1-0.2,0.1c0,0-0.1,0-0.1,0c0-0.1,0-0.1,0-0.2c0.1-1,0.3-2,0.6-3
		c0-0.1,0.1-0.3,0.1-0.4c0-0.1,0-0.1,0-0.2c0,0-0.1-0.1-0.1-0.1c-0.1,0-0.3,0.1-0.4,0.2c-0.4,0.2-0.7,0.4-1,0.7l0.1,0.2
		c0.2-0.2,0.4-0.3,0.7-0.4c0,0,0.1,0,0.1,0c0,0,0,0.1,0,0.1c0,0.2,0,0.4-0.1,0.5c-0.1,0.4-0.2,1-0.3,1.7c-0.1,0.4-0.1,0.7-0.2,1.1
		c0,0.1,0,0.3,0.1,0.4c0,0.1,0.1,0.1,0.2,0.1c0.1,0,0.2,0,0.2,0c0.3-0.2,0.6-0.3,0.8-0.6c0.3-0.2,0.5-0.5,0.8-0.8
		c0.1-0.1,0.3-0.3,0.6-0.8l0,0l-0.2,0.8c-0.1,0.4-0.2,0.7-0.2,0.8c0,0.1,0,0.2,0,0.2c0,0.1,0,0.2,0,0.2c0,0.1,0.1,0.1,0.1,0.1
		c0.1,0,0.2-0.1,0.3-0.1c0.4-0.2,0.7-0.5,1-0.8l-0.1-0.2C180.9,127.9,180.7,128,180.5,128.2z"/>
	<path fill="#FFFFFF" d="M184.3,127.1c0-0.3,0.1-0.5,0.2-0.8c0.1-0.6,0.3-1.2,0.5-1.9l-0.1-0.1l-0.3,0.2c-0.1-0.1-0.3-0.1-0.4-0.1
		c-0.1,0-0.2,0-0.4,0c-0.2,0-0.3,0-0.5,0.1c-0.3,0.1-0.5,0.3-0.8,0.5c-0.2,0.1-0.3,0.3-0.4,0.5c-0.2,0.4-0.4,0.9-0.5,1.3
		c-0.1,0.4-0.2,0.9-0.2,1.4c0,0.2,0,0.4,0.1,0.6c0,0.1,0.1,0.1,0.2,0.1h0.2c0.2-0.1,0.4-0.3,0.6-0.4c0.2-0.2,0.5-0.5,0.7-0.7
		c0.1-0.2,0.3-0.4,0.5-0.7l0,0c-0.1,0.5-0.2,1.1-0.3,1.6c0,0.1,0,0.1,0.1,0.2c0,0.1,0.1,0.1,0.1,0.1c0,0,0.1,0,0.1,0
		c0.2-0.1,0.3-0.2,0.5-0.3l0.6-0.5v-0.2c-0.1,0.1-0.3,0.3-0.5,0.4c-0.1,0-0.1,0-0.2,0c0,0,0,0-0.1,0c0,0,0-0.1,0-0.1v-0.1
		C184.2,127.6,184.2,127.4,184.3,127.1z M183.9,126.4c-0.2,0.4-0.4,0.7-0.6,1c-0.2,0.3-0.4,0.5-0.7,0.7c-0.1,0.1-0.2,0.1-0.3,0.1
		h-0.1c0,0,0-0.1,0-0.1c0-0.1,0-0.1,0-0.2c0-0.6,0.1-1.1,0.3-1.6c0.1-0.4,0.2-0.7,0.4-1.1c0-0.1,0.1-0.2,0.2-0.3
		c0.2-0.1,0.4-0.1,0.6-0.1c0.1,0,0.2,0,0.4,0c0.1,0,0.2,0.1,0.3,0.1C184.2,125.4,184.1,125.9,183.9,126.4L183.9,126.4z"/>
	<path fill="#FFFFFF" d="M186.9,128c-0.1,0.1-0.2,0.1-0.3,0.2h-0.2c0,0,0-0.1,0-0.1c0-0.1,0-0.1,0-0.2c0-0.3,0.2-1.2,0.5-2.7
		c0.4-1.8,0.6-2.8,0.6-3.1l-0.1-0.1c-0.2,0.1-0.4,0.2-0.6,0.2c-0.2,0.1-0.5,0.1-0.7,0.1v0.2h0.4c0.1,0,0.2,0,0.2,0
		c0,0.1,0,0.1,0,0.2c0,0.1,0,0.2,0,0.2c0,0.5-0.1,1-0.3,1.5c-0.1,0.5-0.2,1.1-0.3,1.6c-0.2,1.2-0.4,1.8-0.4,2c0,0.1,0,0.2,0,0.3
		c0,0.1,0,0.2,0,0.3c0,0.1,0.1,0.1,0.2,0.1c0.1,0,0.2,0,0.2,0c0.2-0.1,0.5-0.3,0.7-0.4c0.2-0.1,0.4-0.3,0.5-0.4l-0.1-0.2L186.9,128z
		"/>
	<path fill="#FFFFFF" d="M39.8,74.1c0.9,1.3,2,2.4,3.3,3.3c1.4,1,3,1.7,4.7,2.2c1.9,0.5,3.8,0.8,5.8,0.8c1.6,0,3.3-0.2,4.9-0.5
		c1.6-0.4,3.1-1,4.6-1.7l0.8-1.9l-0.3-0.4c-1,0.7-2.1,1.2-3.2,1.6c-1.7,0.5-3.4,0.8-5.1,0.8c-3.6,0.2-7.2-1.2-9.8-3.7
		c-2.5-2.6-3.9-6.1-3.7-9.8c0-2,0.3-3.9,1-5.8c0.6-1.4,1.4-2.7,2.5-3.8c1-1,2.2-1.7,3.5-2.2c1.5-0.5,3.2-0.7,4.8-0.7
		c1.9-0.1,3.9,0.3,5.6,1.2c1.2,0.6,2.2,1.5,2.9,2.7c0.4,0.7,0.7,1.6,0.9,2.4h0.9l-0.7-8.4h-1c0.1,0.7,0,2.6-1.7,2
		c-2.1-0.8-4.3-1.2-6.5-1.3c-5.2,0-9.2,1.4-12.2,4.2c-2.9,2.7-4.6,6.6-4.5,10.6c0,1.6,0.2,3.1,0.7,4.7C38.3,71.6,39,72.9,39.8,74.1
		L39.8,74.1z"/>
	<path fill="#FFFFFF" d="M58.4,110.7c1.6-0.4,3.1-1,4.6-1.7l0.8-1.9l-0.3-0.4c-1,0.7-2.1,1.3-3.2,1.6c-1.7,0.5-3.4,0.8-5.1,0.8
		c-3.7,0.2-7.2-1.2-9.8-3.7c-2.5-2.6-3.9-6.1-3.7-9.7c0-2,0.3-3.9,1-5.8c0.6-1.4,1.4-2.7,2.5-3.8c1-1,2.2-1.7,3.5-2.2
		c1.6-0.5,3.2-0.7,4.8-0.7c1.9-0.1,3.9,0.3,5.6,1.2c1.2,0.6,2.2,1.5,2.9,2.7c0.4,0.7,0.7,1.6,0.9,2.4h0.9L63.1,81h-1
		c0.1,0.7,0,2.6-1.7,2c-2.1-0.8-4.3-1.3-6.6-1.4c-5.2,0-9.2,1.4-12.2,4.2c-3,2.7-4.6,6.6-4.5,10.6c0,1.6,0.2,3.1,0.7,4.6
		c0.4,1.4,1.1,2.7,1.9,3.9c0.9,1.3,2,2.4,3.3,3.3c1.4,1,3,1.8,4.7,2.2c1.9,0.5,3.8,0.8,5.8,0.8C55.1,111.2,56.7,111,58.4,110.7
		L58.4,110.7z"/>
	<path fill="#FFFFFF" d="M69.7,77.7c1.5,0.7,3.1,1.1,4.8,1.1c0.9,0,1.7-0.1,2.6-0.3c0.7-0.2,1.5-0.4,2.2-0.7c0.7-0.4,1.4-0.8,2-1.2
		l0.6-1.4l-0.3-0.3c-0.9,0.6-2,1.1-3,1.4c-0.8,0.3-1.6,0.4-2.4,0.4c-1.2,0-2.4-0.3-3.5-0.8c-1.1-0.6-2.1-1.5-2.6-2.6
		c-0.7-1.4-1-3-1-4.7h6.4c1.4,0,2.9,0,4.3-0.2c0.9,0,1.7-0.1,2.6-0.3c0-0.5,0-0.9,0-1.4c0-1.4-0.3-2.7-0.8-4
		c-0.6-1.2-1.5-2.2-2.7-2.8c-1.2-0.7-2.6-1-4.1-1c-1.2,0-2.4,0.2-3.4,0.7c-0.8,0.3-1.6,0.8-2.4,1.3c-0.7,0.4-1.3,0.9-1.8,1.5
		c-0.7,0.8-1.1,1.7-1.4,2.7c-0.4,1.4-0.6,2.8-0.6,4.2c0,1.8,0.4,3.6,1.2,5.1C67.1,75.8,68.3,77,69.7,77.7z M70.5,61.9
		c0.9-1.1,2.2-1.6,3.6-1.6c1.3-0.1,2.6,0.5,3.4,1.5c1,1.3,1.5,3,1.4,4.6v0.7c-0.6,0.1-1.7,0.1-3.6,0.1c-0.8,0-2.1,0-4.1-0.1
		c-0.7,0-1.4,0-2.1-0.1C68.9,65.2,69.4,63.4,70.5,61.9L70.5,61.9z"/>
	<path fill="#FFFFFF" d="M93.4,78.3v-1.2h-2.2c-0.2,0-0.4-0.1-0.5-0.2c-0.1-0.1-0.2-0.2-0.2-0.3c-0.2-0.5-0.3-1-0.3-1.5
		c0-0.3,0-2.2-0.1-5.6v-2.4C90,66.1,90.2,65,90.6,64c0.4-0.7,1-1.3,1.8-1.6c0.8-0.5,1.8-0.7,2.8-0.7c1,0,2.1,0.3,2.9,0.8
		c0.8,0.5,1.3,1.2,1.5,2.1c0.2,1.4,0.3,2.7,0.2,4.1V72c0,0.9-0.1,3-0.3,6.3c1.7-0.1,3-0.1,3.7-0.1c1.1,0,2.2,0,3.3,0.1v-1.2h-2.2
		c-0.2,0-0.5-0.1-0.7-0.3c-0.2-0.2-0.3-0.5-0.3-0.8c-0.1-1.2-0.2-2.4-0.1-3.6v-3.6c0-1.7,0-3.4-0.1-5c-0.1-0.9-0.4-1.8-1-2.5
		c-0.6-0.7-1.3-1.2-2.2-1.5c-1-0.4-2-0.7-3.1-0.7c-1.1,0-2.1,0.2-3.1,0.6l-3.7,3.1c0-1.5,0.1-2.6,0.1-3v-0.3c0-0.1,0-0.2-0.1-0.3
		C90.1,59.1,90,59,89.9,59c-0.2,0-0.4,0.1-0.5,0.2c-1.9,0.8-3.9,1.3-6,1.5v1.2c0.9-0.1,1.8,0,2.6,0.1c0.2,0.1,0.3,0.2,0.5,0.3
		c0.1,0.5,0.2,0.9,0.2,1.4c0,1.2,0,2.4,0,3.5v2.4c-0.1,3.7-0.1,5.6-0.1,5.8c0,0.5-0.1,1-0.3,1.4c-0.1,0.1-0.2,0.3-0.3,0.3
		c-0.2,0.1-0.4,0.1-0.7,0.1h-1.9v1.2c2.5-0.1,4.4-0.1,5.5-0.1C90.4,78.2,91.9,78.2,93.4,78.3z"/>
	<path fill="#FFFFFF" d="M134.7,76.2c0.7,0.8,1.6,1.5,2.6,2c1.2,0.6,2.6,0.8,3.9,0.8c1.9,0,3.8-0.5,5.5-1.4c1.6-0.9,3-2.2,3.9-3.8
		c0.9-1.6,1.4-3.5,1.4-5.4c0.2-5-3.7-9.3-8.7-9.5c-0.3,0-0.6,0-0.9,0c-2.7-0.1-5.4,0.9-7.4,2.8c-1.9,1.9-3,4.6-2.9,7.3
		c0,1.6,0.3,3.2,0.9,4.7C133.5,74.7,134,75.5,134.7,76.2z M137.6,62.1c1-1.2,2.5-1.8,4-1.8c1.1,0,2.3,0.3,3.2,0.9
		c1.1,0.8,1.9,2,2.4,3.3c0.7,1.8,1,3.6,0.9,5.5c0.2,2-0.4,4-1.6,5.7c-0.9,1.2-2.4,1.9-3.9,1.9c-1.2,0-2.4-0.4-3.4-1.2
		c-1.2-1-2-2.3-2.4-3.7c-0.5-1.6-0.8-3.3-0.8-5C135.9,65.6,136.4,63.7,137.6,62.1L137.6,62.1z"/>
	<path fill="#FFFFFF" d="M130,59.4c-0.5-0.2-1.1-0.4-1.7-0.4c-0.6,0-1.1,0.1-1.6,0.3c-0.5,0.2-1,0.5-1.4,0.8
		c-0.4,0.4-0.8,0.8-1.1,1.3c-0.5,0.7-1.1,1.4-1.7,2.1c0-1.3,0-2.5,0.1-3.8v-0.3c0-0.1,0-0.2-0.1-0.3c-0.1-0.1-0.1-0.1-0.2-0.1
		c-0.2,0-0.4,0.1-0.6,0.2c-1.9,0.8-3.9,1.3-6,1.5v1.1c0.9,0,1.8,0,2.6,0.1c0.2,0,0.4,0.2,0.5,0.3c0.1,0.5,0.2,0.9,0.2,1.4v5.8
		c0,0.2,0,2-0.1,5.6c0,0.5-0.1,1-0.2,1.4c-0.1,0.1-0.2,0.3-0.3,0.4c-0.2,0.1-0.3,0.2-0.5,0.2c-0.1,0-0.9,0-2.5,0.1v1.2
		c1.6-0.1,3.3-0.1,5-0.1c1.7,0,3.7,0,6,0.1v-1.2c-1.1,0-2.2-0.1-3.3-0.4c-0.2,0-0.3-0.1-0.4-0.2c-0.1-0.1-0.2-0.3-0.2-0.5
		c-0.1-0.5-0.1-1-0.1-1.6c0-2.3-0.1-3.9-0.1-4.8v-2.1c-0.1-1.4,0.3-2.7,1.1-3.8c0.6-0.8,1.6-1.3,2.6-1.3c0.5-0.1,1.1,0.2,1.4,0.6
		c0,0,0.1,0.1,0.1,0.1c0.4,0.3,0.9,0.5,1.4,0.5c1.2,0.1,2.3-0.8,2.4-2c0-0.1,0-0.2,0-0.2c0-0.6-0.2-1.2-0.6-1.6
		C130.6,59.7,130.3,59.6,130,59.4L130,59.4z"/>
	<path fill="#FFFFFF" d="M90.6,109.5h-2.2c-0.2,0-0.3-0.1-0.5-0.2c-0.1-0.1-0.2-0.2-0.3-0.3c-0.2-0.5-0.2-1-0.2-1.5
		c0-0.3,0-2.2-0.1-5.8v-3.8c0-1.6,0-3.8,0.2-6.8L87,90.7c-2,0.9-4.2,1.5-6.5,1.7v1.2c0.9-0.1,1.8,0,2.7,0.2c0.2,0.1,0.4,0.3,0.4,0.5
		c0.2,1.2,0.3,2.4,0.2,3.7v3.6c0,3.8-0.1,5.8-0.1,6c0,0.5-0.1,1-0.3,1.5c-0.1,0.1-0.2,0.3-0.4,0.3c-0.2,0.1-0.4,0.2-0.6,0.2h-1.9
		v1.2c2.4-0.1,4.1-0.1,5.2-0.1c1.2,0,2.8,0,4.8,0.1L90.6,109.5z"/>
	<path fill="#FFFFFF" d="M85.4,87.9c0.6,0,1.2-0.2,1.6-0.7c0.9-0.9,0.9-2.4,0-3.3c-0.8-0.9-2.2-0.9-3.1-0.1c0,0-0.1,0.1-0.1,0.1
		c-0.9,0.9-0.9,2.4,0,3.3C84.2,87.7,84.8,87.9,85.4,87.9z"/>
	<path fill="#FFFFFF" d="M106.1,101.9c-0.3-0.6-0.9-1.1-1.5-1.5c-1.1-0.5-2.3-0.9-3.5-1.1l-3.3-0.8c-0.5-0.1-1-0.4-1.4-0.6
		c-0.3-0.2-0.6-0.6-0.8-0.9c-0.2-0.4-0.4-0.9-0.4-1.3c0-0.9,0.4-1.8,1.1-2.5c0.7-0.7,1.8-1.1,2.8-1.1c0.7,0,1.4,0.1,2.1,0.3
		c0.5,0.2,1,0.4,1.4,0.8c0.3,0.2,0.6,0.5,0.8,0.8c0.2,0.3,0.3,0.5,0.3,0.8c0.1,0.6,0.2,1.3,0.3,1.9h1.2c0-1.6,0.1-3.1,0.2-4.6
		c-0.8-0.4-1.8-0.7-2.7-0.9c-1-0.2-1.9-0.3-2.9-0.4c-1.3,0-2.6,0.3-3.9,0.8c-1.1,0.4-2.1,1.2-2.7,2.2c-0.5,0.9-0.8,1.9-0.8,3
		c0,0.7,0.1,1.4,0.4,2c0.2,0.6,0.6,1.1,1.1,1.5c0.5,0.5,1.1,0.8,1.8,1.1c0.5,0.2,1.6,0.5,3.3,0.8c1.1,0.2,2.2,0.5,3.3,1
		c0.5,0.2,0.9,0.6,1.2,1c0.3,0.5,0.4,1,0.4,1.5c0.1,1.2-0.4,2.3-1.3,3c-0.9,0.8-2.1,1.2-3.3,1.1c-0.6,0-1.2,0-1.8-0.1
		c-0.4-0.1-0.8-0.2-1.2-0.3c-0.4-0.2-0.8-0.4-1.1-0.7c-0.3-0.3-0.6-0.7-0.7-1.1c-0.2-0.4-0.3-0.9-0.4-1.3c-0.1-0.6-0.1-1.2-0.1-1.9
		h-1.2c0,1.2,0,2.3-0.1,3.5c0,0.6-0.1,1.2-0.2,1.7c0,0.1,0,0.2,0,0.3c0,0.1,0,0.2,0.1,0.2c0.5,0.2,1.1,0.4,1.7,0.4
		c1.5,0.3,3,0.5,4.5,0.5c2.2,0.1,4.3-0.6,6-2c1.4-1.2,2.2-2.9,2.2-4.8C106.8,103.5,106.6,102.7,106.1,101.9L106.1,101.9z"/>
	<path fill="#FFFFFF" d="M122.8,87.7c0.4-0.4,0.7-1,0.7-1.6c0-0.6-0.2-1.2-0.7-1.7c-0.4-0.4-1-0.7-1.6-0.7c-0.6,0-1.2,0.2-1.6,0.7
		c-0.9,0.9-0.9,2.4,0,3.3C120.5,88.6,121.8,88.6,122.8,87.7C122.7,87.8,122.8,87.8,122.8,87.7z"/>
	<path fill="#FFFFFF" d="M119.5,107.5c0,0.5-0.1,1-0.3,1.5c-0.1,0.1-0.2,0.3-0.4,0.3c-0.2,0.1-0.4,0.2-0.6,0.2h-1.9v1.2
		c2.4-0.1,4.1-0.1,5.2-0.1c1.2,0,2.8,0,4.8,0.1v-1.2h-2.2c-0.2,0-0.3-0.1-0.5-0.2c-0.1-0.1-0.2-0.2-0.3-0.3c-0.2-0.5-0.2-1-0.2-1.5
		c0-0.3-0.1-2.2-0.1-5.8v-3.8c0-1.6,0-3.8,0.2-6.7l-0.4-0.3c-2,0.9-4.2,1.5-6.5,1.7v1.2c0.9-0.1,1.8,0,2.7,0.2
		c0.2,0.1,0.4,0.3,0.4,0.5c0.2,1.2,0.3,2.4,0.2,3.7v3.6C119.6,105.3,119.5,107.3,119.5,107.5z"/>
	<path fill="#FFFFFF" d="M78.6,94.7c0.9-0.9,0.9-2.4,0-3.3c-0.2-0.3-0.5-0.4-0.8-0.6c-0.4-0.1-0.8-0.2-1.2-0.2
		c-0.6,0-1.1,0.1-1.6,0.3c-0.5,0.2-1,0.5-1.4,0.9c-0.4,0.4-0.8,0.9-1.1,1.4c-0.5,0.7-1.1,1.4-1.7,2.1c0-1.3,0-2.6,0.1-3.9
		c0-0.1,0-0.2,0-0.3c0-0.1,0-0.2-0.1-0.3c0-0.1-0.1-0.1-0.2-0.1c-0.2,0-0.4,0.1-0.5,0.2c-1.9,0.8-3.9,1.3-6,1.5v1.2
		c0.9,0,1.8,0,2.6,0.1c0.2,0.1,0.4,0.2,0.5,0.3c0.1,0.5,0.2,1,0.2,1.5v6.1c0,0.2,0,2.1-0.1,5.8c0,0.5-0.1,1-0.2,1.5
		c-0.1,0.1-0.2,0.3-0.3,0.4c-0.2,0.1-0.3,0.2-0.5,0.2c-0.1,0-0.9,0-2.5,0.1v1.2c1.6-0.1,3.3-0.2,5-0.2s3.7,0,6,0.2v-1.2
		c-1.1,0-2.2-0.2-3.2-0.4c-0.2,0-0.3-0.1-0.4-0.3c-0.1-0.1-0.2-0.3-0.2-0.5c-0.1-0.5-0.1-1.1-0.1-1.7c-0.1-2.4-0.1-4.1-0.1-5v-2.2
		c-0.1-1.4,0.3-2.8,1.1-4c0.6-0.8,1.6-1.3,2.6-1.3c0.6,0,0.6,0.3,1.1,0.6l0,0c0.4,0.4,0.9,0.6,1.5,0.6
		C77.5,95.4,78.1,95.2,78.6,94.7z"/>
	<path fill="#FFFFFF" d="M135.1,110.6c0.5-0.3,1.9-0.5,4.2-3.6c0,1.1,0.2,3.8,3.1,3.4c1-0.1,2-0.5,2.7-1.2v-1c-1.1,1.2-1.9,1-2,0.9
		c-0.2-0.1-0.3-0.3-0.4-0.4c-0.1-0.5-0.2-0.9-0.2-1.4v-6l0.1-3.7c0-1.1-0.1-2.1-0.5-3.1c-0.4-1.1-1.2-2-2.2-2.6
		c-1.2-0.7-2.6-1.1-4-1.1c-1.5,0-2.9,0.2-4.2,0.7c-1.4,0.6-2.5,1.7-3.3,2.9c-0.2,0.5-0.3,1.1-0.4,1.7c0,0.6,0.2,1.2,0.7,1.6
		c0.9,0.9,2.3,0.9,3.1,0c0,0,0,0,0,0c0.4-0.4,0.7-1,0.7-1.6c0-0.3-0.1-0.9-0.1-1.1c0-2,2.1-2.5,2.8-2.5c0.8-0.1,1.7,0.1,2.4,0.6
		c0.8,0.7,1.3,1.7,1.4,2.7c0.2,0.9,0.3,1.9,0.3,2.9c-1.7,0.2-3.4,0.5-5.1,0.9c-1.3,0.3-2.5,0.7-3.7,1.2c-0.5,0.2-1,0.6-1.3,1
		c-0.5,0.5-0.9,1.2-1.1,1.8c-0.3,0.8-0.5,1.7-0.5,2.6c-0.1,1.3,0.4,2.6,1.3,3.5c1,0.9,2.4,1.4,3.7,1.3
		C133.5,111.1,134.3,110.9,135.1,110.6L135.1,110.6z M131,105.4c0-0.8,0.2-1.5,0.5-2.2c0.2-0.4,0.4-0.8,0.8-1
		c0.8-0.5,1.7-0.9,2.6-1.1c1.4-0.4,2.9-0.8,4.4-1v5.5c-0.7,0.9-1.6,1.7-2.6,2.4c-0.8,0.5-1.7,0.8-2.6,0.8c-0.8,0.1-1.7-0.3-2.3-0.8
		C131.3,107.1,131,106.2,131,105.4z"/>
	<path fill="#FFFFFF" d="M151.8,90.8c-0.2,0-0.4,0.1-0.5,0.2c-1.9,0.8-3.8,1.3-5.9,1.5v1.2c0.9,0,1.7,0,2.6,0.1
		c0.2,0.1,0.3,0.2,0.4,0.3c0.1,0.5,0.2,0.9,0.2,1.4v6c-0.1,3.8-0.1,5.7-0.1,6c0,0.5-0.1,1-0.3,1.5c-0.1,0.1-0.2,0.3-0.3,0.3
		c-0.2,0.1-0.4,0.2-0.6,0.2h-1.9v1.2c2.5-0.1,4.3-0.1,5.4-0.1c1.3,0,2.8,0,4.4,0.1v-1.2H153c-0.2,0-0.4-0.1-0.5-0.2
		c-0.1-0.1-0.2-0.2-0.2-0.3c-0.2-0.5-0.2-1-0.2-1.5c0-0.3,0-2.2-0.1-5.8v-2.6c-0.1-1.1,0.1-2.2,0.5-3.2c0.4-0.7,1-1.3,1.8-1.7
		c0.8-0.5,1.8-0.7,2.7-0.7c1,0,2,0.3,2.9,0.8c0.8,0.5,1.3,1.3,1.6,2.2c0.2,1.4,0.3,2.8,0.2,4.2v3.5c0,0.9-0.1,3-0.3,6.4
		c1.7-0.1,3-0.1,3.7-0.1c0.9,0,1.9,0,3.2,0.1v-1.2h-2.1c-0.2,0-0.5-0.1-0.6-0.3c-0.2-0.3-0.3-0.5-0.3-0.8c-0.1-1.2-0.2-2.4-0.1-3.7
		v-3.7c0-1.7,0-3.5-0.1-5.2c-0.1-0.9-0.5-1.8-1-2.5c-0.6-0.7-1.3-1.3-2.2-1.7c-1-0.4-2-0.7-3.1-0.7c-1.1,0-2.1,0.2-3.1,0.6l-3.7,3.3
		c0-1.6,0.1-2.6,0.1-3.1c0-0.1,0-0.2,0-0.3c0-0.1,0-0.2-0.1-0.3C151.9,90.9,151.9,90.9,151.8,90.8z"/>
	<path fill="#FFFFFF" d="M185.8,106c0.9-1.7,1.4-3.6,1.4-5.5c0.1-2.6-0.8-5.1-2.6-7c-1.8-1.8-4.3-2.8-6.8-2.7
		c-2.7-0.1-5.3,1-7.2,2.9c-1.9,2-2.9,4.7-2.8,7.5c0,1.6,0.3,3.3,0.9,4.8c0.4,0.9,0.9,1.7,1.5,2.5c0.7,0.8,1.6,1.5,2.6,2
		c1.2,0.6,2.6,0.8,3.9,0.8c1.9,0,3.8-0.5,5.4-1.4C183.7,109,185,107.6,185.8,106z M178,109.8c-1.2,0-2.4-0.4-3.3-1.2
		c-1.2-1-2-2.3-2.4-3.8c-0.5-1.7-0.8-3.4-0.8-5.1c-0.2-2,0.4-4,1.5-5.7c1-1.2,2.5-1.9,4-1.8c1.1,0,2.2,0.3,3.2,1
		c1.1,0.8,2,2,2.4,3.3c0.7,1.8,1,3.7,0.9,5.6c0.2,2.1-0.4,4.1-1.6,5.8C180.9,109.1,179.5,109.8,178,109.8L178,109.8z"/>
	<path fill="#FFFFFF" d="M108,114.4l3,6.2l-0.8-8.8l1.1-40.8l-0.4,49.6l3-7.6l-0.9-60.2l15.8-3.3l1.1-3l-17,3.2l0.1-12.9l-3,1.6
		L110,50.3l-14,3.1l-1.2,2.9l15-3.1L108,114.4z"/>
</g>
</svg>
